<svg width="316" height="90" viewBox="0 0 316 90" fill="none" xmlns="http://www.w3.org/2000/svg">
<rect width="316" height="90" rx="15" fill="#1E1C59"/>
<path d="M20.017 28H17.3807L21.3977 16.3636H24.5682L28.5795 28H25.9432L23.0284 19.0227H22.9375L20.017 28ZM19.8523 23.4261H26.0795V25.3466H19.8523V23.4261ZM33.4716 28.1705C32.5777 28.1705 31.8087 27.9811 31.1648 27.6023C30.5246 27.2197 30.0322 26.6894 29.6875 26.0114C29.3466 25.3333 29.1761 24.553 29.1761 23.6705C29.1761 22.7765 29.3485 21.9924 29.6932 21.3182C30.0417 20.6402 30.536 20.1117 31.1761 19.733C31.8163 19.3504 32.5777 19.1591 33.4602 19.1591C34.2216 19.1591 34.8883 19.2973 35.4602 19.5739C36.0322 19.8504 36.4848 20.2386 36.8182 20.7386C37.1515 21.2386 37.3352 21.8258 37.3693 22.5H35.0852C35.0208 22.0644 34.8504 21.714 34.5739 21.4489C34.3011 21.1799 33.9432 21.0455 33.5 21.0455C33.125 21.0455 32.7973 21.1477 32.517 21.3523C32.2405 21.553 32.0246 21.8466 31.8693 22.233C31.714 22.6193 31.6364 23.0871 31.6364 23.6364C31.6364 24.1932 31.7121 24.6667 31.8636 25.0568C32.0189 25.447 32.2367 25.7443 32.517 25.9489C32.7973 26.1534 33.125 26.2557 33.5 26.2557C33.7765 26.2557 34.0246 26.1989 34.2443 26.0852C34.4678 25.9716 34.6515 25.8068 34.7955 25.5909C34.9432 25.3712 35.0398 25.108 35.0852 24.8011H37.3693C37.3314 25.4678 37.1496 26.0549 36.8239 26.5625C36.5019 27.0663 36.0568 27.4602 35.4886 27.7443C34.9205 28.0284 34.2481 28.1705 33.4716 28.1705ZM42.8622 28.1705C41.9796 28.1705 41.2164 27.983 40.5724 27.608C39.9323 27.2292 39.438 26.7027 39.0895 26.0284C38.741 25.3504 38.5668 24.5644 38.5668 23.6705C38.5668 22.7689 38.741 21.9811 39.0895 21.3068C39.438 20.6288 39.9323 20.1023 40.5724 19.7273C41.2164 19.3485 41.9796 19.1591 42.8622 19.1591C43.7448 19.1591 44.5062 19.3485 45.1463 19.7273C45.7902 20.1023 46.2865 20.6288 46.6349 21.3068C46.9834 21.9811 47.1577 22.7689 47.1577 23.6705C47.1577 24.5644 46.9834 25.3504 46.6349 26.0284C46.2865 26.7027 45.7902 27.2292 45.1463 27.608C44.5062 27.983 43.7448 28.1705 42.8622 28.1705ZM42.8736 26.2955C43.2751 26.2955 43.6103 26.1818 43.8793 25.9545C44.1482 25.7235 44.3509 25.4091 44.4872 25.0114C44.6274 24.6136 44.6974 24.161 44.6974 23.6534C44.6974 23.1458 44.6274 22.6932 44.4872 22.2955C44.3509 21.8977 44.1482 21.5833 43.8793 21.3523C43.6103 21.1212 43.2751 21.0057 42.8736 21.0057C42.4683 21.0057 42.1274 21.1212 41.8509 21.3523C41.5781 21.5833 41.3717 21.8977 41.2315 22.2955C41.0952 22.6932 41.027 23.1458 41.027 23.6534C41.027 24.161 41.0952 24.6136 41.2315 25.0114C41.3717 25.4091 41.5781 25.7235 41.8509 25.9545C42.1274 26.1818 42.4683 26.2955 42.8736 26.2955ZM54.3281 24.2841V19.2727H56.7486V28H54.4247V26.4148H54.3338C54.1368 26.9261 53.8092 27.3371 53.3509 27.6477C52.8963 27.9583 52.3414 28.1136 51.6861 28.1136C51.1027 28.1136 50.5895 27.9811 50.1463 27.7159C49.7031 27.4508 49.3565 27.0739 49.1065 26.5852C48.8603 26.0966 48.7353 25.5114 48.7315 24.8295V19.2727H51.152V24.3977C51.1558 24.9129 51.294 25.3201 51.5668 25.6193C51.8395 25.9186 52.205 26.0682 52.6634 26.0682C52.955 26.0682 53.2277 26.0019 53.4815 25.8693C53.7353 25.733 53.9399 25.5322 54.0952 25.267C54.2543 25.0019 54.3319 24.6742 54.3281 24.2841ZM65.946 21.7614L63.7301 21.8977C63.6922 21.7083 63.6108 21.5379 63.4858 21.3864C63.3608 21.2311 63.196 21.108 62.9915 21.017C62.7907 20.9223 62.5502 20.875 62.2699 20.875C61.8949 20.875 61.5786 20.9545 61.321 21.1136C61.0634 21.2689 60.9347 21.4773 60.9347 21.7386C60.9347 21.947 61.018 22.1231 61.1847 22.267C61.3513 22.411 61.6373 22.5265 62.0426 22.6136L63.6222 22.9318C64.4706 23.1061 65.1032 23.3864 65.5199 23.7727C65.9366 24.1591 66.1449 24.6667 66.1449 25.2955C66.1449 25.8674 65.9763 26.3693 65.6392 26.8011C65.3059 27.233 64.8475 27.5701 64.2642 27.8125C63.6847 28.0511 63.0161 28.1705 62.2585 28.1705C61.1032 28.1705 60.1828 27.9299 59.4972 27.4489C58.8153 26.964 58.4157 26.3049 58.2983 25.4716L60.679 25.3466C60.7509 25.6989 60.9252 25.9678 61.2017 26.1534C61.4782 26.3352 61.8324 26.4261 62.2642 26.4261C62.6884 26.4261 63.0294 26.3447 63.2869 26.1818C63.5483 26.0152 63.6809 25.8011 63.6847 25.5398C63.6809 25.3201 63.5881 25.1402 63.4062 25C63.2244 24.8561 62.9441 24.7462 62.5653 24.6705L61.054 24.3693C60.2017 24.1989 59.5672 23.9034 59.1506 23.483C58.7377 23.0625 58.5312 22.5265 58.5312 21.875C58.5312 21.3144 58.6828 20.8314 58.9858 20.4261C59.2926 20.0208 59.7225 19.7083 60.2756 19.4886C60.8324 19.2689 61.4839 19.1591 62.2301 19.1591C63.3324 19.1591 64.1998 19.392 64.8324 19.858C65.4688 20.3239 65.84 20.9583 65.946 21.7614ZM72.3111 19.2727V21.0909H67.0554V19.2727H72.3111ZM68.2486 17.1818H70.669V25.3182C70.669 25.5417 70.7031 25.7159 70.7713 25.8409C70.8395 25.9621 70.9342 26.0473 71.0554 26.0966C71.1804 26.1458 71.3243 26.1705 71.4872 26.1705C71.6009 26.1705 71.7145 26.161 71.8281 26.142C71.9418 26.1193 72.0289 26.1023 72.0895 26.0909L72.4702 27.892C72.349 27.9299 72.1785 27.9735 71.9588 28.0227C71.7391 28.0758 71.4721 28.108 71.1577 28.1193C70.5743 28.142 70.063 28.0644 69.6236 27.8864C69.188 27.7083 68.849 27.4318 68.6065 27.0568C68.3641 26.6818 68.2448 26.2083 68.2486 25.6364V17.1818ZM73.8878 28V19.2727H76.3082V28H73.8878ZM75.1037 18.1477C74.7438 18.1477 74.4351 18.0284 74.1776 17.7898C73.9238 17.5473 73.7969 17.2576 73.7969 16.9205C73.7969 16.5871 73.9238 16.3011 74.1776 16.0625C74.4351 15.8201 74.7438 15.6989 75.1037 15.6989C75.4635 15.6989 75.7704 15.8201 76.0241 16.0625C76.2817 16.3011 76.4105 16.5871 76.4105 16.9205C76.4105 17.2576 76.2817 17.5473 76.0241 17.7898C75.7704 18.0284 75.4635 18.1477 75.1037 18.1477ZM82.1903 28.1705C81.2964 28.1705 80.5275 27.9811 79.8835 27.6023C79.2434 27.2197 78.7509 26.6894 78.4062 26.0114C78.0653 25.3333 77.8949 24.553 77.8949 23.6705C77.8949 22.7765 78.0672 21.9924 78.4119 21.3182C78.7604 20.6402 79.2547 20.1117 79.8949 19.733C80.535 19.3504 81.2964 19.1591 82.179 19.1591C82.9403 19.1591 83.607 19.2973 84.179 19.5739C84.7509 19.8504 85.2036 20.2386 85.5369 20.7386C85.8703 21.2386 86.054 21.8258 86.0881 22.5H83.804C83.7396 22.0644 83.5691 21.714 83.2926 21.4489C83.0199 21.1799 82.6619 21.0455 82.2188 21.0455C81.8438 21.0455 81.5161 21.1477 81.2358 21.3523C80.9593 21.553 80.7434 21.8466 80.5881 22.233C80.4328 22.6193 80.3551 23.0871 80.3551 23.6364C80.3551 24.1932 80.4309 24.6667 80.5824 25.0568C80.7377 25.447 80.9555 25.7443 81.2358 25.9489C81.5161 26.1534 81.8438 26.2557 82.2188 26.2557C82.4953 26.2557 82.7434 26.1989 82.9631 26.0852C83.1866 25.9716 83.3703 25.8068 83.5142 25.5909C83.6619 25.3712 83.7585 25.108 83.804 24.8011H86.0881C86.0502 25.4678 85.8684 26.0549 85.5426 26.5625C85.2206 27.0663 84.7756 27.4602 84.2074 27.7443C83.6392 28.0284 82.9669 28.1705 82.1903 28.1705ZM90.0582 22.9545V28H87.6378V19.2727H89.9446V20.8125H90.0469C90.2401 20.3049 90.5639 19.9034 91.0185 19.608C91.473 19.3087 92.0241 19.1591 92.6719 19.1591C93.2779 19.1591 93.8063 19.2917 94.2571 19.5568C94.7079 19.822 95.0582 20.2008 95.3082 20.6932C95.5582 21.1818 95.6832 21.7652 95.6832 22.4432V28H93.2628V22.875C93.2666 22.3409 93.1302 21.9242 92.8537 21.625C92.5772 21.322 92.1965 21.1705 91.7116 21.1705C91.3859 21.1705 91.098 21.2405 90.848 21.3807C90.6018 21.5208 90.4086 21.7254 90.2685 21.9943C90.1321 22.2595 90.062 22.5795 90.0582 22.9545ZM101.568 28.1705C100.67 28.1705 99.8977 27.9886 99.25 27.625C98.6061 27.2576 98.1098 26.7386 97.7614 26.0682C97.4129 25.3939 97.2386 24.5966 97.2386 23.6761C97.2386 22.7784 97.4129 21.9905 97.7614 21.3125C98.1098 20.6345 98.6004 20.1061 99.233 19.7273C99.8693 19.3485 100.616 19.1591 101.472 19.1591C102.047 19.1591 102.583 19.2519 103.08 19.4375C103.58 19.6193 104.015 19.8939 104.386 20.2614C104.761 20.6288 105.053 21.0909 105.261 21.6477C105.47 22.2008 105.574 22.8485 105.574 23.5909V24.2557H98.2045V22.7557H103.295C103.295 22.4072 103.22 22.0985 103.068 21.8295C102.917 21.5606 102.706 21.3504 102.438 21.1989C102.172 21.0436 101.864 20.9659 101.511 20.9659C101.144 20.9659 100.818 21.0511 100.534 21.2216C100.254 21.3883 100.034 21.6136 99.875 21.8977C99.7159 22.178 99.6345 22.4905 99.6307 22.8352V24.2614C99.6307 24.6932 99.7102 25.0663 99.8693 25.3807C100.032 25.6951 100.261 25.9375 100.557 26.108C100.852 26.2784 101.203 26.3636 101.608 26.3636C101.877 26.3636 102.123 26.3258 102.347 26.25C102.57 26.1742 102.761 26.0606 102.92 25.9091C103.08 25.7576 103.201 25.572 103.284 25.3523L105.523 25.5C105.409 26.0379 105.176 26.5076 104.824 26.9091C104.475 27.3068 104.025 27.6174 103.472 27.8409C102.922 28.0606 102.288 28.1705 101.568 28.1705ZM114.415 21.7614L112.199 21.8977C112.161 21.7083 112.08 21.5379 111.955 21.3864C111.83 21.2311 111.665 21.108 111.46 21.017C111.259 20.9223 111.019 20.875 110.739 20.875C110.364 20.875 110.047 20.9545 109.79 21.1136C109.532 21.2689 109.403 21.4773 109.403 21.7386C109.403 21.947 109.487 22.1231 109.653 22.267C109.82 22.411 110.106 22.5265 110.511 22.6136L112.091 22.9318C112.939 23.1061 113.572 23.3864 113.989 23.7727C114.405 24.1591 114.614 24.6667 114.614 25.2955C114.614 25.8674 114.445 26.3693 114.108 26.8011C113.775 27.233 113.316 27.5701 112.733 27.8125C112.153 28.0511 111.485 28.1705 110.727 28.1705C109.572 28.1705 108.652 27.9299 107.966 27.4489C107.284 26.964 106.884 26.3049 106.767 25.4716L109.148 25.3466C109.22 25.6989 109.394 25.9678 109.67 26.1534C109.947 26.3352 110.301 26.4261 110.733 26.4261C111.157 26.4261 111.498 26.3447 111.756 26.1818C112.017 26.0152 112.15 25.8011 112.153 25.5398C112.15 25.3201 112.057 25.1402 111.875 25C111.693 24.8561 111.413 24.7462 111.034 24.6705L109.523 24.3693C108.67 24.1989 108.036 23.9034 107.619 23.483C107.206 23.0625 107 22.5265 107 21.875C107 21.3144 107.152 20.8314 107.455 20.4261C107.761 20.0208 108.191 19.7083 108.744 19.4886C109.301 19.2689 109.953 19.1591 110.699 19.1591C111.801 19.1591 112.669 19.392 113.301 19.858C113.938 20.3239 114.309 20.9583 114.415 21.7614ZM123.399 21.7614L121.183 21.8977C121.145 21.7083 121.064 21.5379 120.939 21.3864C120.814 21.2311 120.649 21.108 120.445 21.017C120.244 20.9223 120.003 20.875 119.723 20.875C119.348 20.875 119.032 20.9545 118.774 21.1136C118.517 21.2689 118.388 21.4773 118.388 21.7386C118.388 21.947 118.471 22.1231 118.638 22.267C118.804 22.411 119.09 22.5265 119.496 22.6136L121.075 22.9318C121.924 23.1061 122.556 23.3864 122.973 23.7727C123.39 24.1591 123.598 24.6667 123.598 25.2955C123.598 25.8674 123.429 26.3693 123.092 26.8011C122.759 27.233 122.301 27.5701 121.717 27.8125C121.138 28.0511 120.469 28.1705 119.712 28.1705C118.556 28.1705 117.636 27.9299 116.95 27.4489C116.268 26.964 115.869 26.3049 115.751 25.4716L118.132 25.3466C118.204 25.6989 118.378 25.9678 118.655 26.1534C118.931 26.3352 119.286 26.4261 119.717 26.4261C120.142 26.4261 120.482 26.3447 120.74 26.1818C121.001 26.0152 121.134 25.8011 121.138 25.5398C121.134 25.3201 121.041 25.1402 120.859 25C120.678 24.8561 120.397 24.7462 120.018 24.6705L118.507 24.3693C117.655 24.1989 117.02 23.9034 116.604 23.483C116.191 23.0625 115.984 22.5265 115.984 21.875C115.984 21.3144 116.136 20.8314 116.439 20.4261C116.746 20.0208 117.176 19.7083 117.729 19.4886C118.286 19.2689 118.937 19.1591 119.683 19.1591C120.786 19.1591 121.653 19.392 122.286 19.858C122.922 20.3239 123.293 20.9583 123.399 21.7614Z" fill="white"/>
<rect x="17" y="41" width="283" height="18" rx="9" fill="#1DB954" fill-opacity="0.4"/>
<rect x="17" y="41" width="100" height="18" rx="9" fill="#1DB954"/>
<path d="M22.5057 79.2557C21.5284 79.2519 20.6875 79.0114 19.983 78.5341C19.2822 78.0568 18.7424 77.3655 18.3636 76.4602C17.9886 75.5549 17.803 74.4659 17.8068 73.1932C17.8068 71.9242 17.9943 70.8428 18.3693 69.9489C18.7481 69.0549 19.2879 68.375 19.9886 67.9091C20.6932 67.4394 21.5322 67.2045 22.5057 67.2045C23.4792 67.2045 24.3163 67.4394 25.017 67.9091C25.7216 68.3788 26.2633 69.0606 26.642 69.9545C27.0208 70.8447 27.2083 71.9242 27.2045 73.1932C27.2045 74.4697 27.0152 75.5606 26.6364 76.4659C26.2614 77.3712 25.7235 78.0625 25.0227 78.5398C24.322 79.017 23.483 79.2557 22.5057 79.2557ZM22.5057 77.2159C23.1723 77.2159 23.7045 76.8807 24.1023 76.2102C24.5 75.5398 24.697 74.5341 24.6932 73.1932C24.6932 72.3106 24.6023 71.5758 24.4205 70.9886C24.2424 70.4015 23.9886 69.9602 23.6591 69.6648C23.3333 69.3693 22.9489 69.2216 22.5057 69.2216C21.8428 69.2216 21.3125 69.553 20.9148 70.2159C20.517 70.8788 20.3163 71.8712 20.3125 73.1932C20.3125 74.0871 20.4015 74.8333 20.5795 75.4318C20.7614 76.0265 21.017 76.4735 21.3466 76.7727C21.6761 77.0682 22.0625 77.2159 22.5057 77.2159Z" fill="white"/>
<path d="M298.006 67.3636V79H295.545V69.6989H295.477L292.812 71.3693V69.1875L295.693 67.3636H298.006Z" fill="white"/>
<path d="M136.48 20.3999C136.48 25.3723 140.528 29.4199 145.5 29.4199C150.472 29.4199 154.52 25.3723 154.52 20.3999C154.52 15.4275 150.472 11.3799 145.5 11.3799C140.528 11.3799 136.48 15.4275 136.48 20.3999ZM145.5 13.0199C149.57 13.0199 152.88 16.3294 152.88 20.3999C152.88 24.4704 149.57 27.7799 145.5 27.7799C141.43 27.7799 138.12 24.4704 138.12 20.3999C138.12 16.3294 141.43 13.0199 145.5 13.0199Z" fill="white"/>
<path d="M145.5 24.5262C145.953 24.5262 146.32 24.1588 146.32 23.7062V19.5241C146.32 19.0715 145.953 18.7041 145.5 18.7041C145.047 18.7041 144.68 19.0715 144.68 19.5241V23.706C144.68 24.1588 145.047 24.5262 145.5 24.5262V24.5262Z" fill="white"/>
<path d="M145.5 17.9136C145.552 17.9136 145.608 17.907 145.661 17.8971C145.713 17.8873 145.766 17.8708 145.815 17.8512C145.864 17.8315 145.91 17.8052 145.956 17.7757C145.998 17.7461 146.041 17.71 146.08 17.6741C146.231 17.5199 146.32 17.3101 146.32 17.0936C146.32 16.8772 146.231 16.6671 146.08 16.5132C145.89 16.323 145.605 16.2377 145.339 16.2901C145.287 16.2999 145.234 16.3164 145.185 16.3361C145.136 16.3557 145.09 16.3821 145.044 16.4116C145.001 16.4411 144.959 16.4772 144.919 16.5132C144.769 16.6674 144.68 16.8772 144.68 17.0936C144.68 17.3101 144.768 17.5201 144.919 17.6741C145.074 17.8251 145.284 17.9136 145.5 17.9136L145.5 17.9136Z" fill="white"/>
</svg>
