<svg width="316" height="90" viewBox="0 0 316 90" fill="none" xmlns="http://www.w3.org/2000/svg">
<rect width="316" height="90" rx="15" fill="#1E1C59"/>
<path d="M22.1364 28H18.0114V16.3636H22.1705C23.3409 16.3636 24.3485 16.5966 25.1932 17.0625C26.0379 17.5246 26.6875 18.1894 27.142 19.0568C27.6004 19.9242 27.8295 20.9621 27.8295 22.1705C27.8295 23.3826 27.6004 24.4242 27.142 25.2955C26.6875 26.1667 26.0341 26.8352 25.1818 27.3011C24.3333 27.767 23.3182 28 22.1364 28ZM20.4716 25.892H22.0341C22.7614 25.892 23.3731 25.7633 23.8693 25.5057C24.3693 25.2443 24.7443 24.8409 24.9943 24.2955C25.2481 23.7462 25.375 23.0379 25.375 22.1705C25.375 21.3106 25.2481 20.608 24.9943 20.0625C24.7443 19.517 24.3712 19.1155 23.875 18.858C23.3788 18.6004 22.767 18.4716 22.0398 18.4716H20.4716V25.892ZM32.0952 28.1648C31.5384 28.1648 31.0421 28.0682 30.6065 27.875C30.1709 27.678 29.8262 27.3883 29.5724 27.0057C29.3224 26.6193 29.1974 26.1383 29.1974 25.5625C29.1974 25.0777 29.2865 24.6705 29.4645 24.3409C29.6425 24.0114 29.8849 23.7462 30.1918 23.5455C30.4986 23.3447 30.8471 23.1932 31.2372 23.0909C31.6312 22.9886 32.044 22.9167 32.4759 22.875C32.9834 22.822 33.3925 22.7727 33.7031 22.7273C34.0137 22.678 34.2391 22.6061 34.3793 22.5114C34.5194 22.4167 34.5895 22.2765 34.5895 22.0909V22.0568C34.5895 21.697 34.4759 21.4186 34.2486 21.2216C34.0251 21.0246 33.7069 20.9261 33.294 20.9261C32.8584 20.9261 32.5118 21.0227 32.2543 21.2159C31.9967 21.4053 31.8262 21.6439 31.7429 21.9318L29.5043 21.75C29.6179 21.2197 29.8414 20.7614 30.1747 20.375C30.508 19.9848 30.938 19.6856 31.4645 19.4773C31.9948 19.2652 32.6084 19.1591 33.3054 19.1591C33.7902 19.1591 34.2543 19.2159 34.6974 19.3295C35.1444 19.4432 35.5402 19.6193 35.8849 19.858C36.2334 20.0966 36.508 20.4034 36.7088 20.7784C36.9096 21.1496 37.0099 21.5947 37.0099 22.1136V28H34.7145V26.7898H34.6463C34.5062 27.0625 34.3187 27.303 34.0838 27.5114C33.849 27.7159 33.5668 27.8769 33.2372 27.9943C32.9077 28.108 32.527 28.1648 32.0952 28.1648ZM32.7884 26.4943C33.1444 26.4943 33.4588 26.4242 33.7315 26.2841C34.0043 26.1402 34.2183 25.947 34.3736 25.7045C34.5289 25.4621 34.6065 25.1875 34.6065 24.8807V23.9545C34.5308 24.0038 34.4266 24.0492 34.294 24.0909C34.1652 24.1288 34.0194 24.1648 33.8565 24.1989C33.6937 24.2292 33.5308 24.2576 33.3679 24.2841C33.205 24.3068 33.0573 24.3277 32.9247 24.3466C32.6406 24.3883 32.3925 24.4545 32.1804 24.5455C31.9683 24.6364 31.8035 24.7595 31.6861 24.9148C31.5687 25.0663 31.5099 25.2557 31.5099 25.483C31.5099 25.8125 31.6293 26.0644 31.8679 26.2386C32.1103 26.4091 32.4171 26.4943 32.7884 26.4943ZM41.3082 22.9545V28H38.8878V19.2727H41.1946V20.8125H41.2969C41.4901 20.3049 41.8139 19.9034 42.2685 19.608C42.723 19.3087 43.2741 19.1591 43.9219 19.1591C44.5279 19.1591 45.0563 19.2917 45.5071 19.5568C45.9579 19.822 46.3082 20.2008 46.5582 20.6932C46.8082 21.1818 46.9332 21.7652 46.9332 22.4432V28H44.5128V22.875C44.5166 22.3409 44.3802 21.9242 44.1037 21.625C43.8272 21.322 43.4465 21.1705 42.9616 21.1705C42.6359 21.1705 42.348 21.2405 42.098 21.3807C41.8518 21.5208 41.6586 21.7254 41.5185 21.9943C41.3821 22.2595 41.312 22.5795 41.3082 22.9545ZM52.7841 28.1705C51.8902 28.1705 51.1212 27.9811 50.4773 27.6023C49.8371 27.2197 49.3447 26.6894 49 26.0114C48.6591 25.3333 48.4886 24.553 48.4886 23.6705C48.4886 22.7765 48.661 21.9924 49.0057 21.3182C49.3542 20.6402 49.8485 20.1117 50.4886 19.733C51.1288 19.3504 51.8902 19.1591 52.7727 19.1591C53.5341 19.1591 54.2008 19.2973 54.7727 19.5739C55.3447 19.8504 55.7973 20.2386 56.1307 20.7386C56.464 21.2386 56.6477 21.8258 56.6818 22.5H54.3977C54.3333 22.0644 54.1629 21.714 53.8864 21.4489C53.6136 21.1799 53.2557 21.0455 52.8125 21.0455C52.4375 21.0455 52.1098 21.1477 51.8295 21.3523C51.553 21.553 51.3371 21.8466 51.1818 22.233C51.0265 22.6193 50.9489 23.0871 50.9489 23.6364C50.9489 24.1932 51.0246 24.6667 51.1761 25.0568C51.3314 25.447 51.5492 25.7443 51.8295 25.9489C52.1098 26.1534 52.4375 26.2557 52.8125 26.2557C53.089 26.2557 53.3371 26.1989 53.5568 26.0852C53.7803 25.9716 53.964 25.8068 54.108 25.5909C54.2557 25.3712 54.3523 25.108 54.3977 24.8011H56.6818C56.6439 25.4678 56.4621 26.0549 56.1364 26.5625C55.8144 27.0663 55.3693 27.4602 54.8011 27.7443C54.233 28.0284 53.5606 28.1705 52.7841 28.1705ZM62.2088 28.1705C61.3111 28.1705 60.5384 27.9886 59.8906 27.625C59.2467 27.2576 58.7505 26.7386 58.402 26.0682C58.0535 25.3939 57.8793 24.5966 57.8793 23.6761C57.8793 22.7784 58.0535 21.9905 58.402 21.3125C58.7505 20.6345 59.241 20.1061 59.8736 19.7273C60.5099 19.3485 61.2562 19.1591 62.1122 19.1591C62.688 19.1591 63.224 19.2519 63.7202 19.4375C64.2202 19.6193 64.6558 19.8939 65.027 20.2614C65.402 20.6288 65.6937 21.0909 65.902 21.6477C66.1103 22.2008 66.2145 22.8485 66.2145 23.5909V24.2557H58.8452V22.7557H63.9361C63.9361 22.4072 63.8603 22.0985 63.7088 21.8295C63.5573 21.5606 63.3471 21.3504 63.0781 21.1989C62.813 21.0436 62.5043 20.9659 62.152 20.9659C61.7846 20.9659 61.4588 21.0511 61.1747 21.2216C60.8944 21.3883 60.6747 21.6136 60.5156 21.8977C60.3565 22.178 60.2751 22.4905 60.2713 22.8352V24.2614C60.2713 24.6932 60.3509 25.0663 60.5099 25.3807C60.6728 25.6951 60.902 25.9375 61.1974 26.108C61.4929 26.2784 61.8433 26.3636 62.2486 26.3636C62.5175 26.3636 62.7637 26.3258 62.9872 26.25C63.2107 26.1742 63.402 26.0606 63.5611 25.9091C63.7202 25.7576 63.8414 25.572 63.9247 25.3523L66.1634 25.5C66.0497 26.0379 65.8168 26.5076 65.4645 26.9091C65.116 27.3068 64.6652 27.6174 64.1122 27.8409C63.563 28.0606 62.9285 28.1705 62.2088 28.1705ZM70.2827 28.1648C69.7259 28.1648 69.2296 28.0682 68.794 27.875C68.3584 27.678 68.0137 27.3883 67.7599 27.0057C67.5099 26.6193 67.3849 26.1383 67.3849 25.5625C67.3849 25.0777 67.474 24.6705 67.652 24.3409C67.83 24.0114 68.0724 23.7462 68.3793 23.5455C68.6861 23.3447 69.0346 23.1932 69.4247 23.0909C69.8187 22.9886 70.2315 22.9167 70.6634 22.875C71.1709 22.822 71.58 22.7727 71.8906 22.7273C72.2012 22.678 72.4266 22.6061 72.5668 22.5114C72.7069 22.4167 72.777 22.2765 72.777 22.0909V22.0568C72.777 21.697 72.6634 21.4186 72.4361 21.2216C72.2126 21.0246 71.8944 20.9261 71.4815 20.9261C71.0459 20.9261 70.6993 21.0227 70.4418 21.2159C70.1842 21.4053 70.0137 21.6439 69.9304 21.9318L67.6918 21.75C67.8054 21.2197 68.0289 20.7614 68.3622 20.375C68.6955 19.9848 69.1255 19.6856 69.652 19.4773C70.1823 19.2652 70.7959 19.1591 71.4929 19.1591C71.9777 19.1591 72.4418 19.2159 72.8849 19.3295C73.3319 19.4432 73.7277 19.6193 74.0724 19.858C74.4209 20.0966 74.6955 20.4034 74.8963 20.7784C75.0971 21.1496 75.1974 21.5947 75.1974 22.1136V28H72.902V26.7898H72.8338C72.6937 27.0625 72.5062 27.303 72.2713 27.5114C72.0365 27.7159 71.7543 27.8769 71.4247 27.9943C71.0952 28.108 70.7145 28.1648 70.2827 28.1648ZM70.9759 26.4943C71.3319 26.4943 71.6463 26.4242 71.919 26.2841C72.1918 26.1402 72.4058 25.947 72.5611 25.7045C72.7164 25.4621 72.794 25.1875 72.794 24.8807V23.9545C72.7183 24.0038 72.6141 24.0492 72.4815 24.0909C72.3527 24.1288 72.2069 24.1648 72.044 24.1989C71.8812 24.2292 71.7183 24.2576 71.5554 24.2841C71.3925 24.3068 71.2448 24.3277 71.1122 24.3466C70.8281 24.3883 70.58 24.4545 70.3679 24.5455C70.1558 24.6364 69.991 24.7595 69.8736 24.9148C69.7562 25.0663 69.6974 25.2557 69.6974 25.483C69.6974 25.8125 69.8168 26.0644 70.0554 26.2386C70.2978 26.4091 70.6046 26.4943 70.9759 26.4943ZM77.1207 28V16.3636H79.5412V20.7386H79.6151C79.7211 20.5038 79.8745 20.2652 80.0753 20.0227C80.2798 19.7765 80.545 19.572 80.8707 19.4091C81.2003 19.2424 81.6094 19.1591 82.098 19.1591C82.7344 19.1591 83.3215 19.3258 83.8594 19.6591C84.3973 19.9886 84.8272 20.4867 85.1491 21.1534C85.4711 21.8163 85.6321 22.6477 85.6321 23.6477C85.6321 24.6212 85.4749 25.4432 85.1605 26.1136C84.8499 26.7803 84.4257 27.286 83.8878 27.6307C83.3537 27.9716 82.7552 28.142 82.0923 28.142C81.6226 28.142 81.223 28.0644 80.8935 27.9091C80.5677 27.7538 80.3007 27.5587 80.0923 27.3239C79.884 27.0852 79.7249 26.8447 79.6151 26.6023H79.5071V28H77.1207ZM79.4901 23.6364C79.4901 24.1553 79.562 24.608 79.706 24.9943C79.8499 25.3807 80.0582 25.6818 80.331 25.8977C80.6037 26.1098 80.9351 26.2159 81.3253 26.2159C81.7192 26.2159 82.0526 26.108 82.3253 25.892C82.598 25.6723 82.8045 25.3693 82.9446 24.983C83.0885 24.5928 83.1605 24.1439 83.1605 23.6364C83.1605 23.1326 83.0904 22.6894 82.9503 22.3068C82.8101 21.9242 82.6037 21.625 82.331 21.4091C82.0582 21.1932 81.723 21.0852 81.3253 21.0852C80.9313 21.0852 80.598 21.1894 80.3253 21.3977C80.0563 21.6061 79.8499 21.9015 79.706 22.2841C79.562 22.6667 79.4901 23.1174 79.4901 23.6364ZM87.2472 28V19.2727H89.6676V28H87.2472ZM88.4631 18.1477C88.1032 18.1477 87.7945 18.0284 87.5369 17.7898C87.2831 17.5473 87.1562 17.2576 87.1562 16.9205C87.1562 16.5871 87.2831 16.3011 87.5369 16.0625C87.7945 15.8201 88.1032 15.6989 88.4631 15.6989C88.8229 15.6989 89.1297 15.8201 89.3835 16.0625C89.6411 16.3011 89.7699 16.5871 89.7699 16.9205C89.7699 17.2576 89.6411 17.5473 89.3835 17.7898C89.1297 18.0284 88.8229 18.1477 88.4631 18.1477ZM94.027 16.3636V28H91.6065V16.3636H94.027ZM95.9659 28V19.2727H98.3864V28H95.9659ZM97.1818 18.1477C96.822 18.1477 96.5133 18.0284 96.2557 17.7898C96.0019 17.5473 95.875 17.2576 95.875 16.9205C95.875 16.5871 96.0019 16.3011 96.2557 16.0625C96.5133 15.8201 96.822 15.6989 97.1818 15.6989C97.5417 15.6989 97.8485 15.8201 98.1023 16.0625C98.3598 16.3011 98.4886 16.5871 98.4886 16.9205C98.4886 17.2576 98.3598 17.5473 98.1023 17.7898C97.8485 18.0284 97.5417 18.1477 97.1818 18.1477ZM104.967 19.2727V21.0909H99.7116V19.2727H104.967ZM100.905 17.1818H103.325V25.3182C103.325 25.5417 103.359 25.7159 103.428 25.8409C103.496 25.9621 103.59 26.0473 103.712 26.0966C103.837 26.1458 103.981 26.1705 104.143 26.1705C104.257 26.1705 104.371 26.161 104.484 26.142C104.598 26.1193 104.685 26.1023 104.746 26.0909L105.126 27.892C105.005 27.9299 104.835 27.9735 104.615 28.0227C104.395 28.0758 104.128 28.108 103.814 28.1193C103.231 28.142 102.719 28.0644 102.28 27.8864C101.844 27.7083 101.505 27.4318 101.263 27.0568C101.02 26.6818 100.901 26.2083 100.905 25.6364V17.1818ZM108.038 31.2727C107.732 31.2727 107.444 31.2481 107.175 31.1989C106.91 31.1534 106.69 31.0947 106.516 31.0227L107.061 29.2159C107.345 29.303 107.601 29.3504 107.828 29.358C108.059 29.3655 108.258 29.3125 108.425 29.1989C108.595 29.0852 108.733 28.892 108.839 28.6193L108.982 28.25L105.851 19.2727H108.396L110.203 25.6818H110.294L112.118 19.2727H114.68L111.288 28.9432C111.125 29.4129 110.904 29.822 110.624 30.1705C110.347 30.5227 109.997 30.7936 109.572 30.983C109.148 31.1761 108.637 31.2727 108.038 31.2727Z" fill="white"/>
<rect x="17" y="41" width="283" height="18" rx="9" fill="#1DB954" fill-opacity="0.4"/>
<rect x="17" y="41" width="175" height="18" rx="9" fill="#1DB954"/>
<path d="M22.5057 79.2557C21.5284 79.2519 20.6875 79.0114 19.983 78.5341C19.2822 78.0568 18.7424 77.3655 18.3636 76.4602C17.9886 75.5549 17.803 74.4659 17.8068 73.1932C17.8068 71.9242 17.9943 70.8428 18.3693 69.9489C18.7481 69.0549 19.2879 68.375 19.9886 67.9091C20.6932 67.4394 21.5322 67.2045 22.5057 67.2045C23.4792 67.2045 24.3163 67.4394 25.017 67.9091C25.7216 68.3788 26.2633 69.0606 26.642 69.9545C27.0208 70.8447 27.2083 71.9242 27.2045 73.1932C27.2045 74.4697 27.0152 75.5606 26.6364 76.4659C26.2614 77.3712 25.7235 78.0625 25.0227 78.5398C24.322 79.017 23.483 79.2557 22.5057 79.2557ZM22.5057 77.2159C23.1723 77.2159 23.7045 76.8807 24.1023 76.2102C24.5 75.5398 24.697 74.5341 24.6932 73.1932C24.6932 72.3106 24.6023 71.5758 24.4205 70.9886C24.2424 70.4015 23.9886 69.9602 23.6591 69.6648C23.3333 69.3693 22.9489 69.2216 22.5057 69.2216C21.8428 69.2216 21.3125 69.553 20.9148 70.2159C20.517 70.8788 20.3163 71.8712 20.3125 73.1932C20.3125 74.0871 20.4015 74.8333 20.5795 75.4318C20.7614 76.0265 21.017 76.4735 21.3466 76.7727C21.6761 77.0682 22.0625 77.2159 22.5057 77.2159Z" fill="white"/>
<path d="M298.006 67.3636V79H295.545V69.6989H295.477L292.812 71.3693V69.1875L295.693 67.3636H298.006Z" fill="white"/>
<path d="M126.48 20.3999C126.48 25.3723 130.528 29.4199 135.5 29.4199C140.472 29.4199 144.52 25.3723 144.52 20.3999C144.52 15.4275 140.472 11.3799 135.5 11.3799C130.528 11.3799 126.48 15.4275 126.48 20.3999ZM135.5 13.0199C139.57 13.0199 142.88 16.3294 142.88 20.3999C142.88 24.4704 139.57 27.7799 135.5 27.7799C131.43 27.7799 128.12 24.4704 128.12 20.3999C128.12 16.3294 131.43 13.0199 135.5 13.0199Z" fill="white"/>
<path d="M135.5 24.5262C135.953 24.5262 136.32 24.1588 136.32 23.7062V19.5241C136.32 19.0715 135.953 18.7041 135.5 18.7041C135.047 18.7041 134.68 19.0715 134.68 19.5241V23.706C134.68 24.1588 135.047 24.5262 135.5 24.5262V24.5262Z" fill="white"/>
<path d="M135.5 17.9136C135.552 17.9136 135.608 17.907 135.661 17.8971C135.713 17.8873 135.766 17.8708 135.815 17.8512C135.864 17.8315 135.91 17.8052 135.956 17.7757C135.998 17.7461 136.041 17.71 136.08 17.6741C136.231 17.5199 136.32 17.3101 136.32 17.0936C136.32 16.8772 136.231 16.6671 136.08 16.5132C135.89 16.323 135.605 16.2377 135.339 16.2901C135.287 16.2999 135.234 16.3164 135.185 16.3361C135.136 16.3557 135.09 16.3821 135.044 16.4116C135.001 16.4411 134.959 16.4772 134.919 16.5132C134.769 16.6674 134.68 16.8772 134.68 17.0936C134.68 17.3101 134.768 17.5201 134.919 17.6741C135.074 17.8251 135.284 17.9136 135.5 17.9136L135.5 17.9136Z" fill="white"/>
</svg>
