<svg width="316" height="90" viewBox="0 0 316 90" fill="none" xmlns="http://www.w3.org/2000/svg">
<rect width="316" height="90" rx="15" fill="#1E1C59"/>
<path d="M20.4716 16.3636V28H18.0114V16.3636H20.4716ZM24.8707 22.9545V28H22.4503V19.2727H24.7571V20.8125H24.8594C25.0526 20.3049 25.3764 19.9034 25.831 19.608C26.2855 19.3087 26.8366 19.1591 27.4844 19.1591C28.0904 19.1591 28.6188 19.2917 29.0696 19.5568C29.5204 19.822 29.8707 20.2008 30.1207 20.6932C30.3707 21.1818 30.4957 21.7652 30.4957 22.4432V28H28.0753V22.875C28.0791 22.3409 27.9427 21.9242 27.6662 21.625C27.3897 21.322 27.009 21.1705 26.5241 21.1705C26.1984 21.1705 25.9105 21.2405 25.6605 21.3807C25.4143 21.5208 25.2211 21.7254 25.081 21.9943C24.9446 22.2595 24.8745 22.5795 24.8707 22.9545ZM39.6648 21.7614L37.4489 21.8977C37.411 21.7083 37.3295 21.5379 37.2045 21.3864C37.0795 21.2311 36.9148 21.108 36.7102 21.017C36.5095 20.9223 36.2689 20.875 35.9886 20.875C35.6136 20.875 35.2973 20.9545 35.0398 21.1136C34.7822 21.2689 34.6534 21.4773 34.6534 21.7386C34.6534 21.947 34.7367 22.1231 34.9034 22.267C35.0701 22.411 35.3561 22.5265 35.7614 22.6136L37.3409 22.9318C38.1894 23.1061 38.822 23.3864 39.2386 23.7727C39.6553 24.1591 39.8636 24.6667 39.8636 25.2955C39.8636 25.8674 39.6951 26.3693 39.358 26.8011C39.0246 27.233 38.5663 27.5701 37.983 27.8125C37.4034 28.0511 36.7348 28.1705 35.9773 28.1705C34.822 28.1705 33.9015 27.9299 33.2159 27.4489C32.5341 26.964 32.1345 26.3049 32.017 25.4716L34.3977 25.3466C34.4697 25.6989 34.6439 25.9678 34.9205 26.1534C35.197 26.3352 35.5511 26.4261 35.983 26.4261C36.4072 26.4261 36.7481 26.3447 37.0057 26.1818C37.267 26.0152 37.3996 25.8011 37.4034 25.5398C37.3996 25.3201 37.3068 25.1402 37.125 25C36.9432 24.8561 36.6629 24.7462 36.2841 24.6705L34.7727 24.3693C33.9205 24.1989 33.286 23.9034 32.8693 23.483C32.4564 23.0625 32.25 22.5265 32.25 21.875C32.25 21.3144 32.4015 20.8314 32.7045 20.4261C33.0114 20.0208 33.4413 19.7083 33.9943 19.4886C34.5511 19.2689 35.2027 19.1591 35.9489 19.1591C37.0511 19.1591 37.9186 19.392 38.5511 19.858C39.1875 20.3239 39.5587 20.9583 39.6648 21.7614ZM46.0298 19.2727V21.0909H40.7741V19.2727H46.0298ZM41.9673 17.1818H44.3878V25.3182C44.3878 25.5417 44.4219 25.7159 44.4901 25.8409C44.5582 25.9621 44.6529 26.0473 44.7741 26.0966C44.8991 26.1458 45.0431 26.1705 45.206 26.1705C45.3196 26.1705 45.4332 26.161 45.5469 26.142C45.6605 26.1193 45.7476 26.1023 45.8082 26.0909L46.1889 27.892C46.0677 27.9299 45.8973 27.9735 45.6776 28.0227C45.4579 28.0758 45.1908 28.108 44.8764 28.1193C44.2931 28.142 43.7817 28.0644 43.3423 27.8864C42.9067 27.7083 42.5677 27.4318 42.3253 27.0568C42.0829 26.6818 41.9635 26.2083 41.9673 25.6364V17.1818ZM47.6065 28V19.2727H49.9531V20.7955H50.044C50.2031 20.2538 50.4702 19.8447 50.8452 19.5682C51.2202 19.2879 51.652 19.1477 52.1406 19.1477C52.2618 19.1477 52.3925 19.1553 52.5327 19.1705C52.6728 19.1856 52.7959 19.2064 52.902 19.233V21.3807C52.7884 21.3466 52.6312 21.3163 52.4304 21.2898C52.2296 21.2633 52.0459 21.25 51.8793 21.25C51.5232 21.25 51.205 21.3277 50.9247 21.483C50.6482 21.6345 50.4285 21.8466 50.2656 22.1193C50.1065 22.392 50.027 22.7064 50.027 23.0625V28H47.6065ZM59.75 24.2841V19.2727H62.1705V28H59.8466V26.4148H59.7557C59.5587 26.9261 59.2311 27.3371 58.7727 27.6477C58.3182 27.9583 57.7633 28.1136 57.108 28.1136C56.5246 28.1136 56.0114 27.9811 55.5682 27.7159C55.125 27.4508 54.7784 27.0739 54.5284 26.5852C54.2822 26.0966 54.1572 25.5114 54.1534 24.8295V19.2727H56.5739V24.3977C56.5777 24.9129 56.7159 25.3201 56.9886 25.6193C57.2614 25.9186 57.6269 26.0682 58.0852 26.0682C58.3769 26.0682 58.6496 26.0019 58.9034 25.8693C59.1572 25.733 59.3617 25.5322 59.517 25.267C59.6761 25.0019 59.7538 24.6742 59.75 24.2841ZM64.1065 28V19.2727H66.4134V20.8125H66.5156C66.6974 20.3011 67.0005 19.8977 67.4247 19.6023C67.849 19.3068 68.3565 19.1591 68.9474 19.1591C69.5459 19.1591 70.0554 19.3087 70.4759 19.608C70.8963 19.9034 71.1766 20.3049 71.3168 20.8125H71.4077C71.5857 20.3125 71.9077 19.9129 72.3736 19.6136C72.8433 19.3106 73.3982 19.1591 74.0384 19.1591C74.8527 19.1591 75.5137 19.4186 76.0213 19.9375C76.5327 20.4527 76.7884 21.1837 76.7884 22.1307V28H74.3736V22.608C74.3736 22.1231 74.2448 21.7595 73.9872 21.517C73.7296 21.2746 73.4077 21.1534 73.0213 21.1534C72.5819 21.1534 72.2391 21.2936 71.9929 21.5739C71.7467 21.8504 71.6236 22.2159 71.6236 22.6705V28H69.277V22.5568C69.277 22.1288 69.1539 21.7879 68.9077 21.5341C68.6652 21.2803 68.3452 21.1534 67.9474 21.1534C67.6785 21.1534 67.4361 21.2216 67.2202 21.358C67.008 21.4905 66.8395 21.678 66.7145 21.9205C66.5895 22.1591 66.527 22.4394 66.527 22.7614V28H64.1065ZM82.6776 28.1705C81.7798 28.1705 81.0071 27.9886 80.3594 27.625C79.7154 27.2576 79.2192 26.7386 78.8707 26.0682C78.5223 25.3939 78.348 24.5966 78.348 23.6761C78.348 22.7784 78.5223 21.9905 78.8707 21.3125C79.2192 20.6345 79.7098 20.1061 80.3423 19.7273C80.9787 19.3485 81.7249 19.1591 82.581 19.1591C83.1567 19.1591 83.6927 19.2519 84.1889 19.4375C84.6889 19.6193 85.1245 19.8939 85.4957 20.2614C85.8707 20.6288 86.1624 21.0909 86.3707 21.6477C86.5791 22.2008 86.6832 22.8485 86.6832 23.5909V24.2557H79.3139V22.7557H84.4048C84.4048 22.4072 84.3291 22.0985 84.1776 21.8295C84.026 21.5606 83.8158 21.3504 83.5469 21.1989C83.2817 21.0436 82.973 20.9659 82.6207 20.9659C82.2533 20.9659 81.9276 21.0511 81.6435 21.2216C81.3632 21.3883 81.1435 21.6136 80.9844 21.8977C80.8253 22.178 80.7438 22.4905 80.7401 22.8352V24.2614C80.7401 24.6932 80.8196 25.0663 80.9787 25.3807C81.1416 25.6951 81.3707 25.9375 81.6662 26.108C81.9616 26.2784 82.312 26.3636 82.7173 26.3636C82.9863 26.3636 83.2325 26.3258 83.456 26.25C83.6795 26.1742 83.8707 26.0606 84.0298 25.9091C84.1889 25.7576 84.3101 25.572 84.3935 25.3523L86.6321 25.5C86.5185 26.0379 86.2855 26.5076 85.9332 26.9091C85.5848 27.3068 85.134 27.6174 84.581 27.8409C84.0317 28.0606 83.3973 28.1705 82.6776 28.1705ZM90.6832 22.9545V28H88.2628V19.2727H90.5696V20.8125H90.6719C90.8651 20.3049 91.1889 19.9034 91.6435 19.608C92.098 19.3087 92.6491 19.1591 93.2969 19.1591C93.9029 19.1591 94.4313 19.2917 94.8821 19.5568C95.3329 19.822 95.6832 20.2008 95.9332 20.6932C96.1832 21.1818 96.3082 21.7652 96.3082 22.4432V28H93.8878V22.875C93.8916 22.3409 93.7552 21.9242 93.4787 21.625C93.2022 21.322 92.8215 21.1705 92.3366 21.1705C92.0109 21.1705 91.723 21.2405 91.473 21.3807C91.2268 21.5208 91.0336 21.7254 90.8935 21.9943C90.7571 22.2595 90.687 22.5795 90.6832 22.9545ZM102.858 19.2727V21.0909H97.6023V19.2727H102.858ZM98.7955 17.1818H101.216V25.3182C101.216 25.5417 101.25 25.7159 101.318 25.8409C101.386 25.9621 101.481 26.0473 101.602 26.0966C101.727 26.1458 101.871 26.1705 102.034 26.1705C102.148 26.1705 102.261 26.161 102.375 26.142C102.489 26.1193 102.576 26.1023 102.636 26.0909L103.017 27.892C102.896 27.9299 102.725 27.9735 102.506 28.0227C102.286 28.0758 102.019 28.108 101.705 28.1193C101.121 28.142 100.61 28.0644 100.17 27.8864C99.7348 27.7083 99.3958 27.4318 99.1534 27.0568C98.911 26.6818 98.7917 26.2083 98.7955 25.6364V17.1818ZM106.923 28.1648C106.366 28.1648 105.87 28.0682 105.435 27.875C104.999 27.678 104.654 27.3883 104.401 27.0057C104.151 26.6193 104.026 26.1383 104.026 25.5625C104.026 25.0777 104.115 24.6705 104.293 24.3409C104.471 24.0114 104.713 23.7462 105.02 23.5455C105.327 23.3447 105.675 23.1932 106.065 23.0909C106.459 22.9886 106.872 22.9167 107.304 22.875C107.812 22.822 108.221 22.7727 108.531 22.7273C108.842 22.678 109.067 22.6061 109.207 22.5114C109.348 22.4167 109.418 22.2765 109.418 22.0909V22.0568C109.418 21.697 109.304 21.4186 109.077 21.2216C108.853 21.0246 108.535 20.9261 108.122 20.9261C107.687 20.9261 107.34 21.0227 107.082 21.2159C106.825 21.4053 106.654 21.6439 106.571 21.9318L104.332 21.75C104.446 21.2197 104.67 20.7614 105.003 20.375C105.336 19.9848 105.766 19.6856 106.293 19.4773C106.823 19.2652 107.437 19.1591 108.134 19.1591C108.618 19.1591 109.082 19.2159 109.526 19.3295C109.973 19.4432 110.368 19.6193 110.713 19.858C111.062 20.0966 111.336 20.4034 111.537 20.7784C111.738 21.1496 111.838 21.5947 111.838 22.1136V28H109.543V26.7898H109.474C109.334 27.0625 109.147 27.303 108.912 27.5114C108.677 27.7159 108.395 27.8769 108.065 27.9943C107.736 28.108 107.355 28.1648 106.923 28.1648ZM107.616 26.4943C107.973 26.4943 108.287 26.4242 108.56 26.2841C108.832 26.1402 109.046 25.947 109.202 25.7045C109.357 25.4621 109.435 25.1875 109.435 24.8807V23.9545C109.359 24.0038 109.255 24.0492 109.122 24.0909C108.993 24.1288 108.848 24.1648 108.685 24.1989C108.522 24.2292 108.359 24.2576 108.196 24.2841C108.033 24.3068 107.885 24.3277 107.753 24.3466C107.469 24.3883 107.221 24.4545 107.009 24.5455C106.796 24.6364 106.632 24.7595 106.514 24.9148C106.397 25.0663 106.338 25.2557 106.338 25.483C106.338 25.8125 106.457 26.0644 106.696 26.2386C106.938 26.4091 107.245 26.4943 107.616 26.4943ZM116.136 16.3636V28H113.716V16.3636H116.136ZM120.496 22.9545V28H118.075V19.2727H120.382V20.8125H120.484C120.678 20.3049 121.001 19.9034 121.456 19.608C121.911 19.3087 122.462 19.1591 123.109 19.1591C123.715 19.1591 124.244 19.2917 124.695 19.5568C125.145 19.822 125.496 20.2008 125.746 20.6932C125.996 21.1818 126.121 21.7652 126.121 22.4432V28H123.7V22.875C123.704 22.3409 123.568 21.9242 123.291 21.625C123.015 21.322 122.634 21.1705 122.149 21.1705C121.823 21.1705 121.536 21.2405 121.286 21.3807C121.039 21.5208 120.846 21.7254 120.706 21.9943C120.57 22.2595 120.5 22.5795 120.496 22.9545ZM132.006 28.1705C131.108 28.1705 130.335 27.9886 129.688 27.625C129.044 27.2576 128.547 26.7386 128.199 26.0682C127.85 25.3939 127.676 24.5966 127.676 23.6761C127.676 22.7784 127.85 21.9905 128.199 21.3125C128.547 20.6345 129.038 20.1061 129.67 19.7273C130.307 19.3485 131.053 19.1591 131.909 19.1591C132.485 19.1591 133.021 19.2519 133.517 19.4375C134.017 19.6193 134.453 19.8939 134.824 20.2614C135.199 20.6288 135.491 21.0909 135.699 21.6477C135.907 22.2008 136.011 22.8485 136.011 23.5909V24.2557H128.642V22.7557H133.733C133.733 22.4072 133.657 22.0985 133.506 21.8295C133.354 21.5606 133.144 21.3504 132.875 21.1989C132.61 21.0436 132.301 20.9659 131.949 20.9659C131.581 20.9659 131.256 21.0511 130.972 21.2216C130.691 21.3883 130.472 21.6136 130.312 21.8977C130.153 22.178 130.072 22.4905 130.068 22.8352V24.2614C130.068 24.6932 130.148 25.0663 130.307 25.3807C130.47 25.6951 130.699 25.9375 130.994 26.108C131.29 26.2784 131.64 26.3636 132.045 26.3636C132.314 26.3636 132.561 26.3258 132.784 26.25C133.008 26.1742 133.199 26.0606 133.358 25.9091C133.517 25.7576 133.638 25.572 133.722 25.3523L135.96 25.5C135.847 26.0379 135.614 26.5076 135.261 26.9091C134.913 27.3068 134.462 27.6174 133.909 27.8409C133.36 28.0606 132.725 28.1705 132.006 28.1705ZM144.852 21.7614L142.636 21.8977C142.598 21.7083 142.517 21.5379 142.392 21.3864C142.267 21.2311 142.102 21.108 141.898 21.017C141.697 20.9223 141.456 20.875 141.176 20.875C140.801 20.875 140.485 20.9545 140.227 21.1136C139.97 21.2689 139.841 21.4773 139.841 21.7386C139.841 21.947 139.924 22.1231 140.091 22.267C140.258 22.411 140.544 22.5265 140.949 22.6136L142.528 22.9318C143.377 23.1061 144.009 23.3864 144.426 23.7727C144.843 24.1591 145.051 24.6667 145.051 25.2955C145.051 25.8674 144.883 26.3693 144.545 26.8011C144.212 27.233 143.754 27.5701 143.17 27.8125C142.591 28.0511 141.922 28.1705 141.165 28.1705C140.009 28.1705 139.089 27.9299 138.403 27.4489C137.722 26.964 137.322 26.3049 137.205 25.4716L139.585 25.3466C139.657 25.6989 139.831 25.9678 140.108 26.1534C140.384 26.3352 140.739 26.4261 141.17 26.4261C141.595 26.4261 141.936 26.3447 142.193 26.1818C142.455 26.0152 142.587 25.8011 142.591 25.5398C142.587 25.3201 142.494 25.1402 142.312 25C142.131 24.8561 141.85 24.7462 141.472 24.6705L139.96 24.3693C139.108 24.1989 138.473 23.9034 138.057 23.483C137.644 23.0625 137.438 22.5265 137.438 21.875C137.438 21.3144 137.589 20.8314 137.892 20.4261C138.199 20.0208 138.629 19.7083 139.182 19.4886C139.739 19.2689 140.39 19.1591 141.136 19.1591C142.239 19.1591 143.106 19.392 143.739 19.858C144.375 20.3239 144.746 20.9583 144.852 21.7614ZM153.837 21.7614L151.621 21.8977C151.583 21.7083 151.501 21.5379 151.376 21.3864C151.251 21.2311 151.087 21.108 150.882 21.017C150.681 20.9223 150.441 20.875 150.161 20.875C149.786 20.875 149.469 20.9545 149.212 21.1136C148.954 21.2689 148.825 21.4773 148.825 21.7386C148.825 21.947 148.909 22.1231 149.075 22.267C149.242 22.411 149.528 22.5265 149.933 22.6136L151.513 22.9318C152.361 23.1061 152.994 23.3864 153.411 23.7727C153.827 24.1591 154.036 24.6667 154.036 25.2955C154.036 25.8674 153.867 26.3693 153.53 26.8011C153.196 27.233 152.738 27.5701 152.155 27.8125C151.575 28.0511 150.907 28.1705 150.149 28.1705C148.994 28.1705 148.073 27.9299 147.388 27.4489C146.706 26.964 146.306 26.3049 146.189 25.4716L148.57 25.3466C148.642 25.6989 148.816 25.9678 149.092 26.1534C149.369 26.3352 149.723 26.4261 150.155 26.4261C150.579 26.4261 150.92 26.3447 151.178 26.1818C151.439 26.0152 151.571 25.8011 151.575 25.5398C151.571 25.3201 151.479 25.1402 151.297 25C151.115 24.8561 150.835 24.7462 150.456 24.6705L148.945 24.3693C148.092 24.1989 147.458 23.9034 147.041 23.483C146.628 23.0625 146.422 22.5265 146.422 21.875C146.422 21.3144 146.573 20.8314 146.876 20.4261C147.183 20.0208 147.613 19.7083 148.166 19.4886C148.723 19.2689 149.375 19.1591 150.121 19.1591C151.223 19.1591 152.09 19.392 152.723 19.858C153.359 20.3239 153.731 20.9583 153.837 21.7614Z" fill="white"/>
<rect x="17" y="41" width="283" height="18" rx="9" fill="#1DB954" fill-opacity="0.4"/>
<rect x="17" y="41" width="80" height="18" rx="9" fill="#1DB954"/>
<path d="M22.5057 79.2557C21.5284 79.2519 20.6875 79.0114 19.983 78.5341C19.2822 78.0568 18.7424 77.3655 18.3636 76.4602C17.9886 75.5549 17.803 74.4659 17.8068 73.1932C17.8068 71.9242 17.9943 70.8428 18.3693 69.9489C18.7481 69.0549 19.2879 68.375 19.9886 67.9091C20.6932 67.4394 21.5322 67.2045 22.5057 67.2045C23.4792 67.2045 24.3163 67.4394 25.017 67.9091C25.7216 68.3788 26.2633 69.0606 26.642 69.9545C27.0208 70.8447 27.2083 71.9242 27.2045 73.1932C27.2045 74.4697 27.0152 75.5606 26.6364 76.4659C26.2614 77.3712 25.7235 78.0625 25.0227 78.5398C24.322 79.017 23.483 79.2557 22.5057 79.2557ZM22.5057 77.2159C23.1723 77.2159 23.7045 76.8807 24.1023 76.2102C24.5 75.5398 24.697 74.5341 24.6932 73.1932C24.6932 72.3106 24.6023 71.5758 24.4205 70.9886C24.2424 70.4015 23.9886 69.9602 23.6591 69.6648C23.3333 69.3693 22.9489 69.2216 22.5057 69.2216C21.8428 69.2216 21.3125 69.553 20.9148 70.2159C20.517 70.8788 20.3163 71.8712 20.3125 73.1932C20.3125 74.0871 20.4015 74.8333 20.5795 75.4318C20.7614 76.0265 21.017 76.4735 21.3466 76.7727C21.6761 77.0682 22.0625 77.2159 22.5057 77.2159Z" fill="white"/>
<path d="M298.006 67.3636V79H295.545V69.6989H295.477L292.812 71.3693V69.1875L295.693 67.3636H298.006Z" fill="white"/>
<path d="M166.48 20.3999C166.48 25.3723 170.528 29.4199 175.5 29.4199C180.472 29.4199 184.52 25.3723 184.52 20.3999C184.52 15.4275 180.472 11.3799 175.5 11.3799C170.528 11.3799 166.48 15.4275 166.48 20.3999ZM175.5 13.0199C179.57 13.0199 182.88 16.3294 182.88 20.3999C182.88 24.4704 179.57 27.7799 175.5 27.7799C171.43 27.7799 168.12 24.4704 168.12 20.3999C168.12 16.3294 171.43 13.0199 175.5 13.0199Z" fill="white"/>
<path d="M175.5 24.5262C175.953 24.5262 176.32 24.1588 176.32 23.7062V19.5241C176.32 19.0715 175.953 18.7041 175.5 18.7041C175.047 18.7041 174.68 19.0715 174.68 19.5241V23.706C174.68 24.1588 175.047 24.5262 175.5 24.5262V24.5262Z" fill="white"/>
<path d="M175.5 17.9136C175.552 17.9136 175.608 17.907 175.661 17.8971C175.713 17.8873 175.766 17.8708 175.815 17.8512C175.864 17.8315 175.91 17.8052 175.956 17.7757C175.998 17.7461 176.041 17.71 176.08 17.6741C176.231 17.5199 176.32 17.3101 176.32 17.0936C176.32 16.8772 176.231 16.6671 176.08 16.5132C175.89 16.323 175.605 16.2377 175.339 16.2901C175.287 16.2999 175.234 16.3164 175.185 16.3361C175.136 16.3557 175.09 16.3821 175.044 16.4116C175.001 16.4411 174.959 16.4772 174.919 16.5132C174.769 16.6674 174.68 16.8772 174.68 17.0936C174.68 17.3101 174.768 17.5201 174.919 17.6741C175.074 17.8251 175.284 17.9136 175.5 17.9136L175.5 17.9136Z" fill="white"/>
</svg>
