<svg width="146" height="126" viewBox="0 0 146 126" fill="none" xmlns="http://www.w3.org/2000/svg">
<g clip-path="url(#clip0_109_188)">
<path d="M144.057 109.362H19.5608V2.02953C19.5608 1.00183 18.7371 0.179688 17.7075 0.179688C16.678 0.179688 15.8543 1.00183 15.8543 2.02953V109.403H2.01676C0.987177 109.403 0.163513 110.225 0.163513 111.253C0.163513 112.28 0.987177 113.103 2.01676 113.103H15.8132V123.914C15.8132 124.942 16.6369 125.764 17.6665 125.764C18.6961 125.764 19.5197 124.942 19.5197 123.914V113.103H144.016C145.046 113.103 145.869 112.28 145.869 111.253C145.869 110.225 145.087 109.362 144.057 109.362L144.057 109.362Z" fill="#1DB954" fill-opacity="0.75"/>
<path d="M37.4761 48.8516C38.6293 48.8516 39.7412 48.5638 40.6884 48.0294L42.8299 51.4824C43.1594 52.0579 43.7771 52.3868 44.3949 52.3868C44.7243 52.3868 45.0538 52.3046 45.3421 52.099C46.2069 51.5646 46.4952 50.4136 45.9598 49.5504L43.4065 45.3575C43.983 44.371 44.3125 43.1788 44.3125 41.9456C44.3125 38.164 41.2238 35.0806 37.4348 35.0806C33.6458 35.0806 30.6395 38.2047 30.6395 41.9866C30.6395 45.7685 33.6871 48.8517 37.4758 48.8517L37.4761 48.8516Z" fill="#6423CC" fill-opacity="0.75"/>
<path d="M37.4761 72.5293C41.2648 72.5293 44.3539 69.4463 44.3539 65.6642C44.3539 64.7599 44.1891 63.8966 43.8597 63.1156L47.8132 59.6626L59.9624 79.5587C59.9624 79.5998 60.0036 79.5998 60.0448 79.6409C59.8388 80.2987 59.7153 80.9975 59.7153 81.7374C59.7153 85.5191 62.804 88.6025 66.593 88.6025C70.382 88.6025 73.4707 85.5605 73.4707 81.7788C73.4707 81.0388 73.3472 80.34 73.1413 79.6823L81.3779 70.8031C82.078 70.0631 82.0368 68.8711 81.2955 68.1722C80.5542 67.4734 79.3599 67.5145 78.6598 68.2544L70.9997 76.4759C69.8053 75.4482 68.2404 74.8727 66.5931 74.8727C64.987 74.8727 63.5455 75.4071 62.3925 76.3115L50.6967 57.1554L61.7336 47.5775C62.9691 48.8518 64.6988 49.6329 66.6345 49.6329C67.4582 49.6329 68.2819 49.4684 69.0232 49.2218L89.1616 71.6252C88.9968 72.2418 88.8733 72.8995 88.8733 73.5572C88.8733 77.3389 91.962 80.4223 95.751 80.4223C99.54 80.4223 102.629 77.3392 102.629 73.5572C102.629 72.8995 102.546 72.2829 102.34 71.6663L122.108 53.2092C122.932 53.5792 123.879 53.7847 124.826 53.7847C128.615 53.7847 131.704 50.7016 131.704 46.9196C131.704 43.1376 128.615 40.0545 124.826 40.0545C121.037 40.0545 117.949 43.1376 117.949 46.9196C117.949 48.3995 118.402 49.756 119.184 50.8659L100.281 68.4597C99.0457 67.3498 97.4395 66.6921 95.7097 66.6921C93.9799 66.6921 92.4151 67.3498 91.1797 68.3775L87.4732 64.2256L91.7562 59.6216C92.8682 60.4026 94.2272 60.8959 95.7098 60.8959C99.4985 60.8959 102.588 57.8128 102.588 54.0308C102.588 52.6743 102.176 51.3999 101.517 50.3311L120.791 31.0927C121.903 31.9148 123.303 32.4081 124.827 32.4081C128.615 32.4081 131.704 29.3251 131.704 25.543C131.704 21.761 128.616 18.678 124.827 18.678C121.038 18.678 117.949 21.761 117.949 25.543C117.949 26.4885 118.155 27.3518 118.484 28.1739L98.7575 47.8232C97.8515 47.371 96.8219 47.1243 95.7511 47.1243C91.9625 47.1243 88.8734 50.2074 88.8734 53.9894C88.8734 54.9349 89.0793 55.8392 89.4088 56.7025L89.3676 56.7436L85.0435 61.4299L72.0709 46.9602C72.9769 45.8091 73.5535 44.3293 73.5535 42.7259C73.5535 38.9443 70.4647 35.8609 66.6758 35.8609C62.8868 35.8609 59.798 38.9439 59.798 42.7259C59.798 43.2192 59.8392 43.7125 59.9628 44.2058L47.1136 55.3461L41.7187 60.0324C40.5656 59.1691 39.1654 58.6758 37.6002 58.6758C33.8115 58.6758 30.7225 61.7589 30.7225 65.5409C30.7225 69.3229 33.6877 72.5293 37.4767 72.5293L37.4761 72.5293Z" fill="#6423CC" fill-opacity="0.75"/>
</g>
<defs>
<clipPath id="clip0_109_188">
<rect width="146" height="126" fill="white"/>
</clipPath>
</defs>
</svg>
