<svg width="37" height="22" viewBox="0 0 37 22" fill="none" xmlns="http://www.w3.org/2000/svg">
<path d="M35.8483 8.10147V8.08791C36.578 7.33817 36.9438 6.4173 36.9461 5.3255C36.9449 4.23524 36.5791 3.30528 35.8483 2.53601C35.1258 1.77393 34.2518 1.39307 33.2268 1.39307C32.1917 1.39427 31.3093 1.77546 30.5792 2.53601V2.54957C29.8665 3.31256 29.5091 4.238 29.5073 5.32548C29.5089 5.98722 29.6425 6.586 29.9077 7.12175L24.6772 12.6327C24.0958 12.3051 23.4543 12.1418 22.753 12.143C22.0549 12.1418 21.418 12.3051 20.8416 12.6327L16.8899 8.46906C17.0182 8.06195 17.0828 7.6265 17.0834 7.16272C17.0839 6.08966 16.7265 5.16456 16.0115 4.38681C16.0081 4.3844 16.0037 4.37988 15.9987 4.37295C15.2631 3.60996 14.385 3.22907 13.3642 3.23C12.3389 3.23 11.4608 3.61119 10.7296 4.37295V4.38681C10.0055 5.16156 9.64377 6.08696 9.64488 7.16272C9.64534 7.69036 9.73137 8.18031 9.90319 8.63206L6.0933 12.6191C5.5204 12.3012 4.88321 12.1424 4.18194 12.143C3.0446 12.1433 2.07178 12.5652 1.2632 13.4083C0.463822 14.2593 0.0636616 15.2886 0.0622559 16.4973C0.0624846 17.6957 0.462873 18.7164 1.2632 19.559L1.27625 19.5725C2.07862 20.4066 3.04709 20.824 4.18192 20.8246C5.32634 20.8227 6.29916 20.4054 7.10065 19.5725V19.559C7.90964 18.7164 8.31419 17.6958 8.31466 16.4973C8.31374 15.7548 8.15884 15.0789 7.84975 14.4699L11.5432 10.5917C12.0854 10.9178 12.6924 11.0811 13.3642 11.0817C14.0881 11.0817 14.7381 10.8913 15.3142 10.5101L19.0724 14.47C18.7615 15.0799 18.6066 15.7558 18.6075 16.4974C18.605 17.6867 19.0184 18.7119 19.8473 19.5725C20.6497 20.4066 21.6182 20.824 22.753 20.8245C23.9015 20.8215 24.87 20.3996 25.6587 19.5589C26.4676 18.7164 26.8724 17.6958 26.8727 16.4973C26.872 15.762 26.7212 15.0907 26.4208 14.4835L31.7155 8.91799C32.175 9.13495 32.6785 9.24374 33.2267 9.24434C34.2487 9.24464 35.1225 8.86345 35.8483 8.10139M34.8798 5.32548C34.8819 5.80913 34.7226 6.21718 34.4018 6.55013H34.389C34.0699 6.89486 33.6823 7.06722 33.2267 7.06722C32.7634 7.06843 32.3674 6.89606 32.0386 6.55013C31.7259 6.22016 31.5707 5.81185 31.5735 5.32548C31.5719 4.83792 31.7268 4.42083 32.0386 4.07369H32.0514C32.3747 3.73679 32.7666 3.56894 33.2267 3.57015C33.6823 3.57015 34.0699 3.738 34.389 4.07369C34.7173 4.42023 34.8809 4.83758 34.8798 5.32548M24.1993 14.946L24.2121 14.9595C24.6095 15.3823 24.8076 15.8946 24.8063 16.4973C24.8065 17.0952 24.6043 17.6029 24.1993 18.0212C23.8085 18.4415 23.3265 18.6501 22.7529 18.6474C22.183 18.648 21.6966 18.4391 21.2937 18.0212C20.8827 17.5939 20.6761 17.0858 20.6736 16.4973C20.675 15.9006 20.8818 15.3881 21.2937 14.9595C21.7027 14.5352 22.1892 14.3219 22.7529 14.3201C23.3137 14.3219 23.7958 14.5307 24.1993 14.946M12.1887 5.911H12.2017C12.5239 5.5753 12.9112 5.40746 13.364 5.40746C13.815 5.40867 14.2023 5.57199 14.5263 5.89744C14.537 5.90889 14.5457 5.91793 14.5521 5.92456C14.8617 6.27231 15.0166 6.68514 15.0171 7.16309C15.0189 7.64403 14.8638 8.05201 14.5521 8.38773C14.5499 8.39888 14.5457 8.40792 14.5393 8.41485C14.2092 8.74091 13.8175 8.90423 13.364 8.90484C12.9087 8.90544 12.517 8.73759 12.1887 8.4013C11.8691 8.06048 11.7099 7.64765 11.711 7.16308C11.7119 6.68154 11.8712 6.26421 12.1887 5.91105M5.64105 14.946L5.65409 14.9596C6.05151 15.3824 6.24941 15.8946 6.24806 16.4973C6.24852 17.0919 6.05038 17.6 5.65409 18.0212H5.64105C5.24271 18.4404 4.75632 18.6489 4.1818 18.6474C3.61484 18.648 3.12845 18.4392 2.72255 18.0212C2.32605 17.6 2.12817 17.0919 2.12834 16.4973C2.1272 15.8917 2.32511 15.3745 2.72255 14.9461C3.12797 14.5284 3.61442 14.3199 4.1818 14.3202C4.75012 14.3211 5.23655 14.5296 5.64105 14.9461V14.946Z" fill="white"/>
</svg>
