<svg width="492" height="468" viewBox="0 0 492 468" fill="none" xmlns="http://www.w3.org/2000/svg">
<g clip-path="url(#clip0_34_188)">
<path d="M300.093 234.333L479.347 65.3866C494.347 51.2466 495.049 27.6106 480.909 12.6106C466.758 -2.38404 443.144 -3.0827 428.133 11.0481L245.666 183.021L63.1998 11.0348C48.1891 -3.10524 24.5744 -2.40258 10.4238 12.5973C-3.71623 27.608 -3.01356 51.228 11.9863 65.3733L191.24 234.32L11.9863 403.28C-3.01369 417.431 -3.71636 441.056 10.4238 456.056C17.7727 463.853 27.6744 467.78 37.6011 467.78C46.7834 467.78 55.9918 464.41 63.2051 457.619L245.672 285.632L428.138 457.605C435.352 464.402 444.55 467.767 453.742 467.767C463.664 467.767 473.576 463.829 480.92 456.043C495.06 441.032 494.357 417.412 479.357 403.267L300.093 234.333Z" fill="white"/>
</g>
<defs>
<clipPath id="clip0_34_188">
<rect width="492" height="468" fill="white"/>
</clipPath>
</defs>
</svg>
