<svg width="45" height="44" viewBox="0 0 45 44" fill="none" xmlns="http://www.w3.org/2000/svg">
<g clip-path="url(#clip0_17_2416)">
<path d="M22.5 43.9874C10.3694 43.9874 0.5 34.129 0.5 22.0125C0.5 9.88108 10.3694 0.0117188 22.5 0.0117188C34.6306 0.0117188 44.5 9.88108 44.5 22.0125C44.5 34.129 34.6306 43.9874 22.5 43.9874ZM22.5 1.51715C11.1999 1.51715 2.00543 10.7116 2.00543 22.0117C2.00543 33.2993 11.1991 42.4811 22.5 42.4811C33.8017 42.4811 42.9946 33.2985 42.9946 22.0117C42.9946 10.7108 33.8009 1.51715 22.5 1.51715Z" fill="#E7ECEF"/>
<path d="M22.5 31.8213C17.0918 31.8213 12.692 27.421 12.692 22.0125C12.692 16.6036 17.0916 12.2036 22.5 12.2036C27.9083 12.2036 32.3089 16.6039 32.3089 22.0125C32.3089 27.421 27.9083 31.8213 22.5 31.8213ZM22.5 13.709C17.9223 13.709 14.1974 17.4338 14.1974 22.0125C14.1974 26.5908 17.9221 30.3159 22.5 30.3159C27.0786 30.3159 30.8035 26.5911 30.8035 22.0125C30.8035 17.4341 27.0787 13.709 22.5 13.709Z" fill="#E7ECEF"/>
<path d="M22.5 23.9445C21.4214 23.9445 20.5434 23.0781 20.5434 22.0131C20.5434 20.934 21.4215 20.0562 22.5 20.0562C23.5794 20.0562 24.4575 20.9343 24.4575 22.0131C24.4572 23.0781 23.5794 23.9445 22.5 23.9445ZM22.5 21.5613C22.2511 21.5613 22.0488 21.7638 22.0488 22.0127C22.0488 22.2439 22.2554 22.4388 22.5 22.4388C22.7455 22.4388 22.9521 22.2439 22.9521 22.0127C22.9518 21.7641 22.7489 21.5613 22.5 21.5613Z" fill="#E7ECEF"/>
<path d="M40.562 22.7652C40.1464 22.7652 39.8091 22.4282 39.8091 22.0123C39.8091 12.4674 32.044 4.70301 22.4998 4.70301C22.0842 4.70301 21.7469 4.36601 21.7469 3.95014C21.7469 3.53457 22.0839 3.19727 22.4998 3.19727C32.8744 3.19727 41.3145 11.6374 41.3145 22.012C41.3148 22.4282 40.9778 22.7652 40.562 22.7652L40.562 22.7652Z" fill="#E7ECEF"/>
<path d="M22.5 40.8013C12.1255 40.8013 3.6861 32.373 3.6861 22.0125C3.6861 21.8582 3.69315 21.7118 3.69991 21.5684C3.70605 21.4558 3.71126 21.3456 3.71126 21.2348C3.71126 20.8192 4.04826 20.4819 4.46413 20.4819C4.87971 20.4819 5.21701 20.8189 5.21701 21.2348C5.21701 21.3695 5.21087 21.504 5.20412 21.6418C5.19798 21.7615 5.19215 21.8836 5.19215 22.0125C5.19215 31.5425 12.9563 39.2959 22.5006 39.2959C22.9162 39.2959 23.2535 39.6329 23.2535 40.0488C23.2526 40.4643 22.9156 40.8013 22.5 40.8013L22.5 40.8013Z" fill="#E7ECEF"/>
<path d="M10.6837 14.8137C10.5403 14.8137 10.3958 14.7726 10.2672 14.6869C9.92158 14.4567 9.82828 13.989 10.0582 13.6434C12.4936 9.98986 16.3939 7.61127 20.7596 7.11682C21.1693 7.07477 21.5453 7.36696 21.592 7.78007C21.6386 8.19318 21.3421 8.56578 20.929 8.61277C17.0048 9.05657 13.4994 11.1945 11.3111 14.4783C11.1656 14.6956 10.9271 14.8137 10.6834 14.8137L10.6837 14.8137Z" fill="#E7ECEF"/>
<path d="M23.402 36.989C23.0089 36.989 22.6777 36.683 22.6519 36.2847C22.6252 35.8697 22.9398 35.5121 23.3545 35.4851C27.5728 35.2126 31.3397 33.0476 33.6905 29.5453C33.9213 29.2009 34.3888 29.1085 34.7343 29.3399C35.0799 29.5717 35.1717 30.0391 34.94 30.3844C32.3275 34.2774 28.1395 36.6842 23.4513 36.9871C23.435 36.9881 23.4187 36.989 23.4022 36.989L23.402 36.989Z" fill="#E7ECEF"/>
</g>
<defs>
<clipPath id="clip0_17_2416">
<rect width="45" height="44" fill="white"/>
</clipPath>
</defs>
</svg>
