<svg width="19" height="19" viewBox="0 0 19 19" fill="none" xmlns="http://www.w3.org/2000/svg">
<g clip-path="url(#clip0_18_5354)">
<path d="M0.47998 9.39988C0.47998 14.3723 4.52756 18.4199 9.49998 18.4199C14.4724 18.4199 18.52 14.3723 18.52 9.39988C18.52 4.42746 14.4724 0.379883 9.49998 0.379883C4.52756 0.379883 0.47998 4.42746 0.47998 9.39988ZM9.49998 2.01988C13.5705 2.01988 16.88 5.3294 16.88 9.39988C16.88 13.4704 13.5705 16.7799 9.49998 16.7799C5.4295 16.7799 2.11998 13.4704 2.11998 9.39988C2.11998 5.3294 5.4295 2.01988 9.49998 2.01988Z" fill="white"/>
<path d="M9.49993 13.5262C9.95249 13.5262 10.3199 13.1588 10.3199 12.7062V8.5241C10.3199 8.07154 9.95249 7.7041 9.49993 7.7041C9.04737 7.7041 8.67993 8.07154 8.67993 8.5241V12.706C8.67993 13.1588 9.04737 13.5262 9.49993 13.5262Z" fill="white"/>
<path d="M9.4999 6.91362C9.55229 6.91362 9.60812 6.90699 9.66051 6.89715C9.71291 6.88731 9.76553 6.87084 9.81472 6.85116C9.86391 6.83148 9.9099 6.80517 9.95565 6.77566C9.99821 6.74614 10.041 6.70999 10.0803 6.67407C10.2311 6.51986 10.3199 6.31006 10.3199 6.09361C10.3199 5.87718 10.2313 5.66714 10.0803 5.51316C9.89022 5.32303 9.60468 5.23769 9.33907 5.29008C9.28667 5.29992 9.23405 5.3164 9.18486 5.33607C9.13567 5.35575 9.08968 5.38206 9.04393 5.41158C9.00137 5.44109 8.95859 5.47724 8.91923 5.51316C8.76846 5.66737 8.67969 5.87717 8.67969 6.09362C8.67969 6.31006 8.76823 6.52009 8.91923 6.67407C9.07344 6.82508 9.28348 6.91362 9.49992 6.91362L9.4999 6.91362Z" fill="white"/>
</g>
<defs>
<clipPath id="clip0_18_5354">
<rect width="19" height="19" fill="white"/>
</clipPath>
</defs>
</svg>
