<svg width="92" height="98" viewBox="0 0 92 98" fill="none" xmlns="http://www.w3.org/2000/svg">
<path d="M45.9075 12.694C48.0003 12.694 49.6994 10.9949 49.6994 8.9021V3.79191C49.6994 1.69915 48.0003 0 45.9075 0C43.8148 0 42.1156 1.69915 42.1156 3.79191V8.89998C42.1156 10.9948 43.8148 12.694 45.9075 12.694V12.694Z" fill="#6423CC" fill-opacity="0.76"/>
<path d="M22.4302 17.0113L18.8076 13.4013C17.3243 11.9243 14.9247 11.9328 13.4435 13.414C11.9665 14.8953 11.9729 17.2969 13.452 18.7781L17.0746 22.3881C17.8152 23.1245 18.7822 23.4926 19.7492 23.4926C20.7226 23.4926 21.6938 23.1202 22.4366 22.3754C23.9157 20.8942 23.9136 18.4925 22.4302 17.0113V17.0113Z" fill="#1DB954" fill-opacity="0.75"/>
<path d="M78.3771 13.4144C76.8937 11.9332 74.4963 11.9247 73.013 13.4017L69.3904 17.0116C67.907 18.4886 67.9049 20.8924 69.3819 22.3757C70.1246 23.1185 71.0959 23.493 72.0692 23.493C73.0363 23.493 74.0054 23.1269 74.7439 22.3884L78.3665 18.7785C79.8477 17.2972 79.8519 14.8934 78.3771 13.4144V13.4144Z" fill="#1DB954" fill-opacity="0.75"/>
<path d="M8.91477 41.9838H3.79191C1.69915 41.9838 0 43.6829 0 45.7757C0 47.8684 1.69915 49.5676 3.79191 49.5676C5.88466 49.5676 12.7067 47.8684 12.7067 45.7757C12.7067 43.6829 11.0096 41.9838 8.91477 41.9838Z" fill="#6423CC" fill-opacity="0.76"/>
<path d="M88.0248 41.9838H82.904C80.8113 41.9838 79.1121 43.6829 79.1121 45.7757C79.1121 47.8684 80.8113 49.5676 82.904 49.5676H88.0248C90.1175 49.5676 91.8167 47.8684 91.8167 45.7757C91.8167 43.6829 90.1175 41.9838 88.0248 41.9838Z" fill="#6423CC" fill-opacity="0.76"/>
<path d="M63.1607 28.0243C57.6738 23.1193 50.3099 20.7855 42.9358 21.6084C30.76 22.9774 21.1578 32.8465 20.102 45.0813C19.5349 51.6348 21.4266 58.0865 25.4322 63.256C28.7354 67.5113 30.5551 73.0575 30.5551 78.8656V81.7518C30.5551 90.197 37.445 97.0717 45.9069 97.0717C54.371 97.0717 61.2587 90.197 61.2587 81.7518V78.8719C61.2587 73.254 63.1885 67.6441 66.8366 62.6485C70.091 58.1858 71.8156 52.9044 71.8156 47.3709C71.8177 39.9968 68.6605 32.944 63.1607 28.0243ZM45.9086 89.4911C42.2966 89.4911 39.2771 87.0132 38.4136 83.6824H53.4058C52.5403 87.0109 49.5207 89.4911 45.9086 89.4911ZM60.7144 58.1802C56.7003 63.6774 54.3348 69.8159 53.7969 76.0964H38.0285C37.5164 69.6193 35.2163 63.4954 31.4246 58.6076C28.5913 54.9533 27.254 50.3803 27.656 45.7335C28.3903 37.225 35.3222 30.0963 43.7803 29.144C49.0766 28.5493 54.1679 30.1596 58.1034 33.6786C61.999 37.1573 64.2311 42.1513 64.2311 47.3755C64.2332 51.2923 63.0145 55.0297 60.7144 58.1802Z" fill="white" fill-opacity="0.75"/>
</svg>
