<svg width="35" height="28" viewBox="0 0 35 28" fill="none" xmlns="http://www.w3.org/2000/svg">
<path d="M0.000230537 13.9988C-0.000304733 14.2498 0.0513517 14.4985 0.151986 14.7297C0.234421 14.8961 0.342284 15.0492 0.471832 15.1841C0.511713 15.2322 0.530984 15.2914 0.57568 15.3395L13.0201 27.4457H13.0204C13.5115 27.9238 14.2275 28.1105 14.8985 27.9355C15.5695 27.7605 16.0935 27.2507 16.2734 26.5979C16.4532 25.9452 16.2613 25.2487 15.7702 24.7706L6.63797 15.89H33.0561C33.7507 15.89 34.3922 15.5293 34.7396 14.9442C35.0868 14.3589 35.0868 13.6382 34.7396 13.0528C34.3922 12.4678 33.7506 12.1071 33.0561 12.1071H6.63797L15.764 3.22912V3.22938C16.2551 2.75132 16.4471 2.05482 16.2672 1.40205C16.0873 0.749285 15.5633 0.239495 14.8923 0.0645213C14.2213 -0.110452 13.5053 0.0762384 13.0142 0.554295L0.569096 12.6605C0.524398 12.7055 0.505127 12.7646 0.465248 12.8159C0.335706 12.9508 0.227844 13.1039 0.145402 13.27C0.0474405 13.501 -0.0020714 13.7483 6.63911e-05 13.998L0.000230537 13.9988Z" fill="white"/>
</svg>
