<svg width="35" height="36" viewBox="0 0 35 36" fill="none" xmlns="http://www.w3.org/2000/svg">
<g clip-path="url(#clip0_17_2568)">
<path d="M17.5001 4.84948C18.2562 4.84948 18.8701 4.23558 18.8701 3.47948V1.63318C18.8701 0.877081 18.2562 0.263184 17.5001 0.263184C16.744 0.263184 16.1301 0.877081 16.1301 1.63318V3.47871C16.1301 4.23558 16.744 4.84948 17.5001 4.84948V4.84948Z" fill="white"/>
<path d="M9.01767 6.40931L7.70883 5.10505C7.17291 4.57141 6.30595 4.57449 5.77081 5.10964C5.23717 5.6448 5.23948 6.51252 5.77386 7.04766L7.0827 8.35192C7.35028 8.61797 7.69965 8.751 8.04904 8.751C8.40072 8.751 8.75162 8.61644 9.01996 8.34734C9.55436 7.81218 9.5536 6.94446 9.01767 6.40932V6.40931Z" fill="white"/>
<path d="M29.231 5.10988C28.6951 4.57472 27.8289 4.57167 27.293 5.10529L25.9842 6.40955C25.4482 6.94319 25.4475 7.81167 25.9811 8.34757C26.2494 8.61592 26.6004 8.75123 26.952 8.75123C27.3014 8.75123 27.6515 8.61898 27.9184 8.35215L29.2272 7.04789C29.7624 6.51273 29.7639 5.64425 29.231 5.10987V5.10988Z" fill="white"/>
<path d="M4.13469 15.4316H2.28382C1.52772 15.4316 0.913818 16.0455 0.913818 16.8016C0.913818 17.5577 1.52772 18.1716 2.28382 18.1716H4.13469C4.89079 18.1716 5.50469 17.5577 5.50469 16.8016C5.50469 16.0455 4.89155 15.4316 4.13469 15.4316Z" fill="white"/>
<path d="M32.7167 15.4316H30.8666C30.1105 15.4316 29.4966 16.0455 29.4966 16.8016C29.4966 17.5577 30.1105 18.1716 30.8666 18.1716H32.7167C33.4728 18.1716 34.0867 17.5577 34.0867 16.8016C34.0867 16.0455 33.4728 15.4316 32.7167 15.4316Z" fill="white"/>
<path d="M23.7334 10.3881C21.7511 8.61598 19.0905 7.77278 16.4263 8.07007C12.0272 8.5647 8.55795 12.1304 8.17651 16.5508C7.97161 18.9185 8.65509 21.2495 10.1023 23.1172C11.2957 24.6546 11.9532 26.6584 11.9532 28.7569V29.7997C11.9532 32.8509 14.4425 35.3347 17.4997 35.3347C20.5577 35.3347 23.0463 32.8509 23.0463 29.7997V28.7592C23.0463 26.7294 23.7435 24.7026 25.0615 22.8977C26.2373 21.2854 26.8604 19.3772 26.8604 17.378C26.8612 14.7137 25.7205 12.1655 23.7335 10.3881L23.7334 10.3881ZM17.5003 32.5958C16.1953 32.5958 15.1044 31.7006 14.7924 30.4972H20.209C19.8963 31.6997 18.8054 32.5958 17.5003 32.5958ZM22.8496 21.2833C21.3993 23.2694 20.5447 25.4873 20.3503 27.7564H14.6533C14.4683 25.4162 13.6372 23.2037 12.2673 21.4378C11.2436 20.1174 10.7605 18.4652 10.9057 16.7864C11.171 13.7123 13.6755 11.1367 16.7314 10.7927C18.6449 10.5778 20.4844 11.1596 21.9063 12.431C23.3137 13.6879 24.1202 15.4922 24.1202 17.3796C24.1209 18.7947 23.6806 20.1449 22.8496 21.2832L22.8496 21.2833Z" fill="white"/>
</g>
<defs>
<clipPath id="clip0_17_2568">
<rect width="35" height="36" fill="white"/>
</clipPath>
</defs>
</svg>
