<svg width="29" height="17" viewBox="0 0 29 17" fill="none" xmlns="http://www.w3.org/2000/svg">
<g clip-path="url(#clip0_18_4597)">
<path d="M27.7816 14.5217H1.21841C0.568649 14.5217 0 15.0902 0 15.7401C0 16.39 0.56869 16.9585 1.21841 16.9585H27.7816C28.4315 16.9585 29 16.3898 29 15.7401C29.0002 15.0902 28.5127 14.5217 27.7818 14.5217H27.7816Z" fill="white"/>
<path d="M27.7816 7.37323H1.21841C0.568483 7.37323 0 7.94192 0 8.59164C0 9.24158 0.56869 9.81006 1.21841 9.81006H27.7816C28.4315 9.81006 29 9.24137 29 8.59164C29.0002 7.94188 28.5127 7.37323 27.7818 7.37323H27.7816Z" fill="white"/>
<path d="M27.7816 0.224792H1.21841C0.568483 0.224792 0 0.793482 0 1.44321C0 2.09314 0.56869 2.66162 1.21841 2.66162H27.7816C28.4315 2.66162 29 2.09293 29 1.44321C29.0002 0.793275 28.5127 0.224792 27.7818 0.224792H27.7816Z" fill="white"/>
</g>
<defs>
<clipPath id="clip0_18_4597">
<rect width="29" height="17" fill="white" transform="matrix(1 0 0 -1 0 17)"/>
</clipPath>
</defs>
</svg>
