<svg width="28" height="28" viewBox="0 0 28 28" fill="none" xmlns="http://www.w3.org/2000/svg">
<g clip-path="url(#clip0_17_2485)">
<path d="M27.1751 3.32759C27.1755 2.44028 26.7731 1.60089 26.081 1.04548C25.3892 0.490072 24.4825 0.278513 23.6163 0.470951L9.96635 3.51306V3.51284C9.318 3.65692 8.73779 4.0171 8.3215 4.53464C7.90494 5.05196 7.6771 5.69573 7.6751 6.35996V20.088C6.93733 19.6509 6.0951 19.422 5.2376 19.4251C4.13941 19.3637 3.06145 19.7395 2.2395 20.4702C1.41749 21.201 0.918013 22.2273 0.850098 23.3251C0.918002 24.4228 1.41749 25.4492 2.2395 26.18C3.06151 26.9106 4.13947 27.2864 5.2376 27.2251C6.33578 27.2864 7.41374 26.9106 8.23569 26.18C9.0577 25.4492 9.55718 24.4228 9.6251 23.3251C9.62227 23.1153 9.59942 22.9063 9.55676 22.7011C9.60094 22.5893 9.62422 22.4702 9.6251 22.3501V9.58761C9.70606 9.61873 9.79181 9.63527 9.87864 9.63636C9.94981 9.64593 10.0218 9.64593 10.093 9.63636L25.225 6.1653V17.1633C24.4872 16.7263 23.645 16.4973 22.7875 16.5004C21.6893 16.439 20.6114 16.8149 19.7894 17.5455C18.9674 18.2763 18.4679 19.3027 18.4 20.4004C18.4679 21.4981 18.9674 22.5245 19.7894 23.2553C20.6114 23.9859 21.6894 24.3618 22.7875 24.3004C23.8857 24.3618 24.9637 23.9859 25.7856 23.2553C26.6076 22.5245 27.1071 21.4981 27.175 20.4004C27.1722 20.1906 27.1493 19.9817 27.1067 19.7765C27.1509 19.6646 27.1741 19.5456 27.175 19.4254L27.1751 3.32759ZM5.2376 25.2751C4.65761 25.3304 4.07891 25.1578 3.62383 24.7939C3.16898 24.4298 2.87342 23.9032 2.8001 23.3251C2.87344 22.7471 3.16899 22.2204 3.62383 21.8563C4.07891 21.4925 4.65761 21.3199 5.2376 21.3752C5.81758 21.3199 6.39629 21.4925 6.85136 21.8563C7.30622 22.2204 7.60178 22.7471 7.6751 23.3251C7.60176 23.9032 7.30621 24.4298 6.85136 24.7939C6.39629 25.1578 5.81758 25.3304 5.2376 25.2751ZM22.7876 22.3501C22.2076 22.4054 21.6289 22.2328 21.1738 21.8689C20.719 21.5048 20.4234 20.9782 20.3501 20.4001C20.4234 19.8221 20.719 19.2954 21.1738 18.9313C21.6289 18.5675 22.2076 18.3949 22.7876 18.4502C23.3676 18.3949 23.9463 18.5675 24.4014 18.9313C24.8562 19.2954 25.1518 19.8221 25.2251 20.4001C25.1518 20.9782 24.8562 21.5048 24.4014 21.8689C23.9463 22.2328 23.3676 22.4054 22.7876 22.3501ZM25.2251 4.15662L9.6251 7.72517V6.36017C9.61966 6.1347 9.69235 5.91446 9.83098 5.73667C9.96961 5.55887 10.1657 5.43481 10.3855 5.3852L24.0355 2.35289C24.3256 2.28477 24.631 2.35311 24.8643 2.53809C25.0934 2.72395 25.2262 3.00362 25.2251 3.29871V4.15662Z" fill="white"/>
</g>
<defs>
<clipPath id="clip0_17_2485">
<rect width="28" height="28" fill="white"/>
</clipPath>
</defs>
</svg>
