<svg width="93" height="93" viewBox="0 0 93 93" fill="none" xmlns="http://www.w3.org/2000/svg">
<g clip-path="url(#clip0_12_14)">
<path d="M88.4144 17.0697H75.8302V4.48552C75.8302 2.25929 73.9909 0.419922 71.7646 0.419922H4.58544C2.35921 0.419922 0.519836 2.25929 0.519836 4.48552V71.5679C0.519836 73.7941 2.35921 75.6335 4.58544 75.6335H17.0723V88.1204C17.0723 90.3466 18.9117 92.186 21.1379 92.186H88.2203C90.4465 92.186 92.2859 90.3466 92.2859 88.1204L92.2866 21.1348C92.4804 18.9085 90.6411 17.0692 88.4149 17.0692L88.4144 17.0697ZM8.74801 8.64827H67.6992V67.5995H8.74801V8.64827ZM84.252 84.1523H25.3976V75.7308H71.7648C73.991 75.7308 75.8304 73.8915 75.8304 71.6652V25.298H84.2518L84.252 84.1523Z" fill="#1DB954"/>
<path d="M50.856 34.0097L32.464 23.4587C29.3661 21.6193 25.3978 23.9428 25.3978 27.5243V48.6267C25.3978 52.2081 29.2694 54.5315 32.464 52.6923L50.9528 42.1412C54.0501 40.3992 54.0501 35.8496 50.8556 34.0102L50.856 34.0097Z" fill="#1DB954"/>
</g>
<defs>
<clipPath id="clip0_12_14">
<rect width="93" height="93" fill="white"/>
</clipPath>
</defs>
</svg>
