<svg width="90" height="91" viewBox="0 0 90 91" fill="none" xmlns="http://www.w3.org/2000/svg">
<g clip-path="url(#clip0_12_96)">
<path d="M89.1375 10.2539C89.139 7.27347 87.7873 4.45398 85.4626 2.58835C83.1386 0.722761 80.0933 0.0121422 77.1838 0.658534L31.3338 10.8769V10.8762C29.156 11.3601 27.2071 12.57 25.8087 14.3084C24.4095 16.046 23.6442 18.2084 23.6375 20.4396V66.5516C21.1594 65.0836 18.3303 64.3146 15.45 64.3249C11.7612 64.1188 8.14039 65.3812 5.37947 67.8353C2.61837 70.2901 0.940629 73.7376 0.712502 77.4249C0.940591 81.1122 2.61837 84.5597 5.37947 87.0145C8.14058 89.4685 11.7614 90.731 15.45 90.5249C19.1388 90.7311 22.7596 89.4686 25.5205 87.0145C28.2816 84.5597 29.9594 81.1122 30.1875 77.4249C30.178 76.7202 30.1012 76.0184 29.958 75.3291C30.1064 74.9534 30.1846 74.5535 30.1875 74.15V31.2811C30.4594 31.3857 30.7475 31.4412 31.0392 31.4449C31.2782 31.4771 31.5202 31.4771 31.7592 31.4449L82.5872 19.7857V56.7277C80.1091 55.2598 77.28 54.4908 74.3997 54.5011C70.711 54.2949 67.0901 55.5574 64.3292 58.0115C61.5681 60.4663 59.8904 63.9138 59.6622 67.6011C59.8903 71.2884 61.5681 74.7359 64.3292 77.1907C67.0903 79.6447 70.7111 80.9071 74.3997 80.7011C78.0885 80.9072 81.7093 79.6448 84.4703 77.1907C87.2314 74.7359 88.9091 71.2884 89.1372 67.6011C89.1277 66.8964 89.051 66.1946 88.9077 65.5053C89.0561 65.1295 89.1343 64.7297 89.1372 64.3261L89.1375 10.2539ZM15.45 83.9751C13.5018 84.1608 11.558 83.5811 10.0294 82.3588C8.50156 81.1358 7.50878 79.3668 7.2625 77.4251C7.50886 75.4835 8.50159 73.7145 10.0294 72.4915C11.558 71.2692 13.5018 70.6895 15.45 70.8752C17.3982 70.6895 19.342 71.2692 20.8706 72.4915C22.3984 73.7145 23.3912 75.4835 23.6375 77.4251C23.3911 79.3668 22.3984 81.1358 20.8706 82.3588C19.342 83.5811 17.3982 84.1608 15.45 83.9751ZM74.4 74.1501C72.4518 74.3358 70.508 73.7561 68.9794 72.5338C67.4516 71.3108 66.4588 69.5418 66.2125 67.6002C66.4589 65.6585 67.4516 63.8895 68.9794 62.6665C70.508 61.4442 72.4518 60.8645 74.4 61.0502C76.3482 60.8645 78.292 61.4442 79.8206 62.6665C81.3485 63.8895 82.3412 65.6585 82.5875 67.6002C82.3411 69.5418 81.3484 71.3108 79.8206 72.5338C78.292 73.7561 76.3482 74.3358 74.4 74.1501ZM82.5875 13.0386L30.1875 25.0253V20.4403C30.1692 19.6829 30.4134 18.9431 30.8791 18.346C31.3447 17.7487 32.0034 17.332 32.7417 17.1654L78.5917 6.97992C79.5662 6.7511 80.5919 6.98065 81.3755 7.60202C82.1452 8.22631 82.5912 9.16569 82.5875 10.1569V13.0386Z" fill="#6423CC"/>
</g>
<defs>
<clipPath id="clip0_12_96">
<rect width="90" height="91" fill="white"/>
</clipPath>
</defs>
</svg>
