<svg width="130" height="120" viewBox="0 0 130 120" fill="none" xmlns="http://www.w3.org/2000/svg">
<g clip-path="url(#clip0_28_6041)">
<path d="M32.8 120H5.20001C2.66075 120 0.600006 117.939 0.600006 115.4C0.600006 112.861 2.66075 110.8 5.20001 110.8H32.8C35.3393 110.8 37.4 112.861 37.4 115.4C37.4 117.939 35.3393 120 32.8 120Z" fill="#E7ECEF" fill-opacity="0.75"/>
<path d="M32.8 92.4H5.20001C2.66075 92.4 0.600006 90.3392 0.600006 87.8C0.600006 85.2607 2.66075 83.2 5.20001 83.2H32.8C35.3393 83.2 37.4 85.2607 37.4 87.8C37.4 90.3392 35.3393 92.4 32.8 92.4Z" fill="#E7ECEF" fill-opacity="0.75"/>
<path d="M78.8 120H51.2C48.6608 120 46.6 117.939 46.6 115.4C46.6 112.861 48.6608 110.8 51.2 110.8H78.8C81.3393 110.8 83.4 112.861 83.4 115.4C83.4 117.939 81.3393 120 78.8 120Z" fill="#1DB954" fill-opacity="0.75"/>
<path d="M78.8 92.4H51.2C48.6608 92.4 46.6 90.3392 46.6 87.8C46.6 85.2607 48.6608 83.2 51.2 83.2H78.8C81.3393 83.2 83.4 85.2607 83.4 87.8C83.4 90.3392 81.3393 92.4 78.8 92.4Z" fill="#1DB954" fill-opacity="0.75"/>
<path d="M124.8 120H97.2C94.6608 120 92.6 117.939 92.6 115.4C92.6 112.861 94.6608 110.8 97.2 110.8H124.8C127.339 110.8 129.4 112.861 129.4 115.4C129.4 117.939 127.339 120 124.8 120Z" fill="#6423CC" fill-opacity="0.76"/>
<path d="M124.8 92.4H97.2C94.6608 92.4 92.6 90.3392 92.6 87.8C92.6 85.2607 94.6608 83.2 97.2 83.2H124.8C127.339 83.2 129.4 85.2607 129.4 87.8C129.4 90.3392 127.339 92.4 124.8 92.4Z" fill="#6423CC" fill-opacity="0.76"/>
<path d="M78.8 64.7999H51.2C48.6608 64.7999 46.6 62.7391 46.6 60.1999C46.6 57.6606 48.6608 55.5999 51.2 55.5999H78.8C81.3393 55.5999 83.4 57.6606 83.4 60.1999C83.4 62.7391 81.3393 64.7999 78.8 64.7999Z" fill="#1DB954" fill-opacity="0.75"/>
<path d="M78.8 37.2H51.2C48.6608 37.2 46.6 35.1393 46.6 32.6C46.6 30.0607 48.6608 28 51.2 28H78.8C81.3393 28 83.4 30.0607 83.4 32.6C83.4 35.1393 81.3393 37.2 78.8 37.2Z" fill="#1DB954" fill-opacity="0.75"/>
<path d="M124.8 64.7999H97.2C94.6608 64.7999 92.6 62.7391 92.6 60.1999C92.6 57.6606 94.6608 55.5999 97.2 55.5999H124.8C127.339 55.5999 129.4 57.6606 129.4 60.1999C129.4 62.7391 127.339 64.7999 124.8 64.7999Z" fill="#6423CC" fill-opacity="0.76"/>
<path d="M78.8 9.5999H51.2C48.6608 9.5999 46.6 7.53916 46.6 4.9999C46.6 2.46065 48.6608 0.399902 51.2 0.399902H78.8C81.3393 0.399902 83.4 2.46065 83.4 4.9999C83.4 7.53916 81.3393 9.5999 78.8 9.5999Z" fill="#1DB954" fill-opacity="0.75"/>
</g>
<defs>
<clipPath id="clip0_28_6041">
<rect width="130" height="120" fill="white"/>
</clipPath>
</defs>
</svg>
