<svg width="29" height="36" viewBox="0 0 29 36" fill="none" xmlns="http://www.w3.org/2000/svg">
<path d="M14.5012 0.500231C14.2502 0.499695 14.0015 0.551352 13.7703 0.651986C13.6039 0.734421 13.4508 0.842284 13.3159 0.971832C13.2678 1.01171 13.2086 1.03098 13.1605 1.07568L1.05429 13.5201V13.5204C0.576239 14.0115 0.389548 14.7275 0.564521 15.3985C0.739495 16.0695 1.24928 16.5935 1.90205 16.7734C2.55482 16.9532 3.25132 16.7613 3.72938 16.2702L12.61 7.13797L12.61 33.5561C12.61 34.2507 12.9707 34.8922 13.5558 35.2396C14.1411 35.5868 14.8618 35.5868 15.4472 35.2396C16.0322 34.8922 16.3929 34.2506 16.3929 33.5561V7.13797L25.2709 16.264H25.2706C25.7487 16.7551 26.4452 16.9471 27.0979 16.7672C27.7507 16.5873 28.2605 16.0633 28.4355 15.3923C28.6105 14.7213 28.4238 14.0053 27.9457 13.5142L15.8395 1.0691C15.7945 1.0244 15.7354 1.00513 15.6841 0.965248C15.5492 0.835706 15.3961 0.727844 15.23 0.645402C14.999 0.54744 14.7517 0.497929 14.502 0.500066L14.5012 0.500231Z" fill="white"/>
</svg>
